<?xml version="1.0" encoding="utf-8"?>
<!-- Generator: Adobe Illustrator 27.6.1, SVG Export Plug-In . SVG Version: 6.00 Build 0)  -->
<svg version="1.1" id="Layer_1" xmlns="http://www.w3.org/2000/svg" xmlns:xlink="http://www.w3.org/1999/xlink" x="0px" y="0px"
	 viewBox="0 0 204.8 187.8" style="enable-background:new 0 0 204.8 187.8;" xml:space="preserve">
<style type="text/css">
	.st0{display:none;fill:#FFFFFF;}
	.st1{fill:#FFFFFF;}
</style>
<rect x="-3" y="-22.8" class="st0" width="209.2" height="234.8"/>
<g>
	<path class="st1" d="M169.7,53.3c-0.2,5.5-0.7,11-1.6,16.5c-0.8,4.8-2.1,9.4-3.9,13.9c-2.4,6-6.4,11.2-11.7,15
		c-3.1,2.2-6.6,3.6-10.3,4.2c-8.7,1.5-16.7-0.3-23.7-5.8c-2.7-2.2-5.1-4.8-6.9-7.8c-3.2-5.3-5.5-11.1-6.6-17.1
		c-1.1-4.4-1.6-9-1.7-13.5c0-2.6-0.4-5.2-0.3-7.8c0.2-6.3,1.1-12.5,2.8-18.5c1.2-4.6,3-9,5.2-13.1c3.9-7.2,9.2-13,16.9-16.1
		c2.3-0.9,4.8-1.4,7.3-1.5c6-0.5,12,1.3,16.8,5.1c3.6,2.7,6.5,6.2,8.7,10.1c2.9,5.2,5,10.7,6.4,16.4
		C168.7,39.7,169.6,46.5,169.7,53.3z M151.8,54.7c0-7.3,0.2-14.6-0.9-22c-0.8-5.7-1.8-11.3-4-16.6c-1-2.6-2.6-4.9-4.8-6.7
		c-2.5-2.1-6.1-2.6-9-1.2c-2,0.9-3.7,2.2-5,4c-1.7,2.2-2.9,4.7-3.7,7.4c-1.1,3.3-1.9,6.7-2.3,10.1c-0.4,4.2-1.1,8.3-1.3,12.5
		c-0.3,4.7-0.2,9.5-0.1,14.3c0,4,0.1,8,0.4,12c0.4,5.2,1.2,10.3,2.4,15.4c0.8,3.2,2.2,6.3,4.2,8.9c4.1,5.3,12.3,6.4,17,1
		c0.9-1,1.7-2.1,2.3-3.2c1.4-2.7,2.4-5.6,3-8.6c0.9-4.4,1.5-9,1.7-13.5C152,63.8,151.8,59.2,151.8,54.7L151.8,54.7z"/>
	<path class="st1" d="M84.6,32.4v26.4c0,0.5,0,1.1,0,1.6c0,0.8,0.4,1.1,1.2,1.1c1.1,0,2.2,0,3.2,0c2.9,0,5.7,0,8.6,0
		c2,0,2.5,0.6,2.6,2.6c0.1,3,0.1,6.1,0,9.1c0,2-0.6,2.6-2.6,2.6c-3.7,0-7.4,0-11,0c-2,0-2,0-2,1.9c0,6.8,0,13.6,0,20.5
		c0,5.1-0.7,4.1-4.1,4.2c-3.2,0-6.5,0-9.7,0c-2.7,0-2.8-0.2-2.9-2.9c0-1.6,0-3.2,0-4.8c0-5.6,0-11.1,0-16.7c0-2,0-2.1-2.1-2.1
		c-7.5,0-14.9,0-22.3,0c-2.9,0-5.7,0-8.6,0c-4.1,0-6-3.3-3.9-6.8c1.3-2.2,2.7-4.2,4.1-6.3l31.7-48.6c2.1-3.2,4.3-6.4,6.3-9.7
		c1-2,3.1-3.1,5.3-2.9c1.1,0.1,2.2,0,3.2,0.1c2.3,0.2,3,0.9,3,3.2C84.6,14.1,84.6,23.2,84.6,32.4z M67.9,45.2L67.9,45.2V32.3
		c0.1-0.6,0-1.2-0.1-1.9c-0.1-0.5-0.4-0.9-0.9-1.2c-0.5-0.1-1,0.1-1.4,0.5c-0.7,0.9-1.4,1.8-2,2.8L45.9,58.9c-0.3,0.5-0.7,1-1,1.6
		s-0.1,0.9,0.4,1c0.4,0,0.7,0,1.1,0h20.2c0.7,0,1.2-0.5,1.3-1.2c0.1-0.5,0.1-1.1,0-1.6C67.9,54.2,67.9,49.7,67.9,45.2z"/>
	<path class="st1" d="M95.8,162.2c0.2,6.3-1.8,12.6-5.8,17.5c-4.2,5.4-9.9,8.4-16.7,8c-7.2-0.2-13.6-4.4-16.8-10.8
		c-3.6-6.8-4.6-14.6-2.8-22.1c1-4.9,3.4-9.5,6.9-13c7.7-7.6,20-7.5,27.6,0.1c0.8,0.8,1.5,1.6,2.1,2.5
		C94.2,149.5,96.1,155.8,95.8,162.2z M74.8,144.8c-0.9,0.1-1.8,0.2-2.6,0.4c-2.9,0.7-5.4,2.6-6.8,5.2c-2.7,4.6-3.7,9.9-3,15.2
		c0.3,4.3,2.4,8.3,5.8,11.1c2.4,2.1,5.6,2.9,8.7,2.1c3.6-1,6.6-3.4,8.2-6.8c2-3.8,2.8-8.1,2.3-12.4c-0.3-3.8-1.6-7.3-3.9-10.4
		C81.6,146.3,78.3,144.7,74.8,144.8z"/>
	<path class="st1" d="M183.9,137.3c5.2,0,10.4,0,15.6,0c2.1,0,2.3,0.2,2.3,2.3c0,2.8,0,5.6,0,8.3c0,2.2-0.2,2.4-2.5,2.4
		c-1.3,0-2.5,0-3.8,0c-1.9,0-2.1-0.2-2.1-2.2c0-0.9,0-1.8,0-2.7s-0.4-1.2-1.3-1.2c-3.4,0-6.8,0-10.2,0c-1,0-1.4,0.3-1.4,1.4
		c0,2.9,0,5.7,0,8.6c0,1.8,0.3,2,2.1,2c2.4,0,4.8-0.1,7.3,0c1.6,0,1.8,0.2,1.8,1.9s0,3.2,0,4.9c0,1.1-0.5,1.4-1.5,1.4
		c-2.5,0-5,0-7.5,0c-2.1,0-2.2,0.1-2.2,2.1c0,3.8,0,7.5,0,11.3c0,1.5,0.1,1.6,1.5,1.7c3.4,0,6.8,0,10.2,0c1,0,1.3-0.4,1.3-1.3
		c0-1.7,0-3.4,0-5.1c0-0.9,0.4-1.3,1.3-1.3h5.7c0.7-0.1,1.4,0.4,1.5,1.1c0,0.1,0,0.3,0,0.4c0,3.9,0,7.7,0,11.6
		c0,1.2-0.4,1.5-1.7,1.6c-0.4,0-0.9,0-1.3,0h-29.9c-0.5,0-1.1,0-1.6,0c-0.7,0-1.2-0.5-1.3-1.2l0,0c0-1.5,0-3,0-4.6
		c0-0.7,0.5-1.3,1.2-1.3c0.1,0,0.2,0,0.3,0c0.2,0,0.4,0,0.5,0c3.3-0.1,3.3-0.1,3.3-3.6v-28.6c0-0.6,0-1.3,0-1.9
		c0-0.8-0.4-1.1-1.2-1.1s-1.8,0-2.7,0c-1.3-0.1-1.5-0.3-1.5-1.7c0-1.2,0-2.3,0-3.5c0-1.4,0.3-1.7,1.7-1.8c1.6-0.1,3.2,0,4.8,0
		L183.9,137.3L183.9,137.3z"/>
	<path class="st1" d="M118,137.3c2.5,0,5,0,7.5,0c1.4,0,1.6,0.2,1.7,1.5c0.1,1.3,0.2,2.8,0.2,4.3c0.1,0.6-0.3,1.1-0.9,1.2
		c-0.1,0-0.1,0-0.2,0c-0.7,0-1.4,0-2.1,0c-1.5,0-1.6,0.2-1.1,1.5c1.1,3.2,2.3,6.4,3.4,9.6c1.5,4.4,3,8.8,4.6,13.1
		c0.1,0.3,0.5,0.6,0.8,0.8c0.2-0.3,0.5-0.5,0.6-0.8c0.7-2.3,1.3-4.6,2-6.9c1.5-5.3,3-10.6,4.4-16c0.3-1.1,0.1-1.3-0.9-1.3
		c-0.6,0-1.3,0-1.9,0c-1.3-0.1-1.4-0.2-1.5-1.6c0-1.1,0-2.1,0-3.2c0-2.1,0-2.1,2.1-2.1c3.6,0,7.2,0,10.8,0c1.3,0,2.7,0,4,0
		c1.7,0.1,1.9,0.3,2,2.1c0,1.1,0,2.2,0,3.2c0,1.3-0.3,1.5-1.5,1.7c-2.9,0.3-2.9,0.3-3.8,3c-1.9,5.8-3.8,11.5-5.7,17.3
		c-2,6.2-3.9,12.4-6,18.6c-1.3,4.1-0.6,3.3-4.6,3.3s-3.3,0.7-4.8-3.5c-2.7-7.2-5.4-14.4-8.1-21.6c-1.8-5-3.6-9.9-5.5-14.8
		c-0.1-0.4-0.4-0.8-0.5-1.2c-0.2-0.7-0.9-1.2-1.6-1.1c-0.6,0-1.3,0-1.9,0c-0.9,0-1.3-0.3-1.3-1.2c0-1.4,0-2.9,0-4.3
		c0-1,0.5-1.4,1.5-1.4L118,137.3L118,137.3z"/>
	<path class="st1" d="M18.5,186.4h-14c-0.6,0.1-1.3,0.1-1.9,0c-0.4-0.1-1-0.6-1.1-0.9c-0.1-1.7-0.1-3.4,0-5.1c0-0.5,0.4-1,0.9-1
		c0.1,0,0.1,0,0.2,0h3.2c0.9,0,1.3-0.4,1.3-1.3c0-0.4,0-0.9,0-1.3v-29.9c0-0.5,0-1.1,0-1.6s-0.3-0.9-0.8-1c-0.1,0-0.1,0-0.2,0
		c-1.2,0-2.3,0-3.5,0c-0.5,0-1-0.4-1-1c0-0.1,0-0.2,0-0.3c-0.5-5.7-0.5-5.7,5.2-5.7c4.5,0,8.9,0,13.4,0c1.9,0,2,0.1,2,2
		c0,1.1,0,2.2,0,3.2c0,1.7-0.1,1.7-1.9,1.8c-1.3,0.1-2.6,0.2-3.9,0.4c-0.1,1.2-0.2,2.5-0.2,3.7c0,9.4,0,18.8,0,28.2
		c0,0.5,0,1.1,0,1.6c-0.1,0.5,0.3,1.1,0.8,1.2c0.1,0,0.2,0,0.4,0h8.9c0.9,0,1.3-0.4,1.3-1.3c0-1.6,0-3.2-0.1-4.8
		c0-1,0.3-1.5,1.3-1.5c1.8,0,3.6,0,5.4,0c1.5,0,1.7,0.2,1.8,1.7c0,2,0,3.9,0,5.9c0,1.5,0,3,0,4.5c0,2.1-0.4,2.6-2.6,2.6
		C28.5,186.4,23.6,186.4,18.5,186.4L18.5,186.4z"/>
	<path class="st1" d="M105,117.4h28c0.6,0,1.3,0,1.9,0c0.2,0,0.6,0.2,0.6,0.4c0.2,0.8,0.2,1.6,0,2.3c-0.1,0.3-1,0.5-1.6,0.5
		c-1.3,0.1-2.5,0-3.8,0H77.5c-0.5,0-1.1,0-1.6,0c-1.5-0.1-1.9-0.4-2-1.6c-0.1-1.2,0.4-1.7,2.1-1.7c0.4,0,0.9,0,1.3,0L105,117.4z"/>
</g>
</svg>
