<?xml version="1.0" encoding="utf-8"?>
<!-- Generator: Adobe Illustrator 27.6.1, SVG Export Plug-In . SVG Version: 6.00 Build 0)  -->
<svg version="1.1" id="CONTENT" xmlns="http://www.w3.org/2000/svg" xmlns:xlink="http://www.w3.org/1999/xlink" x="0px" y="0px"
	 viewBox="0 0 1449.6 200" style="enable-background:new 0 0 1449.6 200;" xml:space="preserve">
<style type="text/css">
	.st0{fill:#FFFFFF;}
</style>
<path class="st0" d="M361.1,139.8c2,14.8,13.6,28,30.4,28c11,0,21.4-4.6,26.6-13.6l39,4c-11.9,28.3-36.7,41.6-66.2,41.6
	c-39.6,0-69.4-30.6-69.4-71.1s29.2-71.1,68.8-71.1c36.5,0,69.4,25.1,69.4,80.6v1.4L361.1,139.8z M360.3,114.6h59.3
	c-2-13.3-13.3-25.7-29.2-25.7S363.1,100.4,360.3,114.6z"/>
<path class="st0" d="M1044.2,139.8c2,14.8,13.6,28,30.4,28c11,0,21.4-4.6,26.6-13.6l39,4c-11.8,28.3-36.7,41.6-66.2,41.6
	c-39.6,0-69.4-30.6-69.4-71.1s29.2-71.1,68.8-71.1c36.4,0,69.4,25.1,69.4,80.6v1.4L1044.2,139.8z M1043.3,114.6h59.3
	c-2-13.3-13.3-25.7-29.2-25.7S1046.2,100.4,1043.3,114.6z"/>
<path class="st0" d="M163.9,196.4v-30.1h13.3V37.5h-12.6V7.4h49.6v59c0,4.6-0.6,10.4-0.6,10.4c9.9-12.1,24.6-19.1,40.2-19.1
	c28.6,0,49.2,18.2,49.2,49.1v59.4h13.3v30.1h-64.2v-30.1h13.3v-49.9c0-16.8-10.7-23.7-22.6-23.7c-11,0-20.8,6.1-28.1,15v58.6H231
	v30.1H163.9z"/>
<path class="st0" d="M780.9,196.4v-30.1h13.3V37.5h-13.3V7.4h50.3v59c0,4.6-0.6,10.4-0.6,10.4c9.9-12.1,24.6-19.1,40.2-19.1
	c28.6,0,49.2,18.2,49.2,49.1v59.4h13.3v30.1h-64.2v-30.1h13.3v-49.9c0-16.8-10.7-23.7-22.6-23.7c-11,0-20.8,6.1-28.1,15v58.6H848
	v30.1H780.9z"/>
<path class="st0" d="M765.2,91.3V61.2h-24.6V7.4h-37.6v53.8h-21.5v30.1h21.5V176c0,11.2,9.1,20.3,20.3,20.3c0,0,0,0,0,0h41.9v-30
	h-17.8c-3.7,0-6.8-3-6.8-6.8l0,0V91.3H765.2z"/>
<path class="st0" d="M538.5,7.3v31.8h18.3l-45.5,127.1h-13.7v30.1h71.3v-30.1h-18.3l8.6-25.3h67l8.8,25.3h-19.3v30.1h71.4v-30.1
	h-13.4l-57-159L538.5,7.3z M570.4,108.3l22.1-64.8l22.4,64.8H570.4z"/>
<path class="st0" d="M37.2,196.4v-30.1h19.2V42H33.7v25.1H0V7.4h153v59.7h-33.8V42H96.6v124.3h19.2v30.1H37.2z"/>
<path class="st0" d="M947,37.5h-13.4V7.4h50.9v152.1c0,3.7,3,6.8,6.8,6.8l0,0h7.2v30.1h-31.3c-11.2,0-20.2-9.1-20.2-20.3V37.5z"/>
<path class="st0" d="M1242.5,196.4v-30.1h16.2v-75h-16.2V61.2h53.8v105.1h16.2v30.1H1242.5z M1275.8,0c13.4,0,24.3,10.8,24.3,24.2
	c0,0,0,0.1,0,0.1c0,13.6-10.7,24-24.3,24c-13.1,0.1-23.9-10.4-24-23.5c0-0.2,0-0.3,0-0.5C1251.7,11,1262.5,0.1,1275.8,0z"/>
<path class="st0" d="M1202.3,61.2h24.6v30.1h-24.6v68.3c0,3.7,3,6.8,6.8,6.8h17.8v30.1H1185c-11.2,0-20.3-9.1-20.3-20.3
	c0,0,0,0,0-0.1V91.3h-18.1V61.2h18.1V7.4h37.6V61.2z"/>
<path class="st0" d="M1386.5,91.4c15.9,0,28.6,9.8,31.5,19.7h31.5V60h-31v16c-5.3-9.2-18.3-18.1-37.2-18.1
	c-37.9,0-65.1,30.6-65.1,71.1s29.2,71.1,70,71.1c28.6,0,53.2-13.6,63-37.9l-31.3-16.1c-4.9,12.4-17.1,20.5-31,20.5
	c-19.7,0-33.3-17.3-33.3-38.1S1366.8,91.4,1386.5,91.4z"/>
</svg>
