<?xml version="1.0" encoding="utf-8"?>
<!-- Generator: Adobe Illustrator 27.6.1, SVG Export Plug-In . SVG Version: 6.00 Build 0)  -->
<svg version="1.1" id="layer" xmlns="http://www.w3.org/2000/svg" xmlns:xlink="http://www.w3.org/1999/xlink" x="0px" y="0px"
	 viewBox="0 0 600 87.1" style="enable-background:new 0 0 600 87.1;" xml:space="preserve">
<style type="text/css">
	.st0{fill:#FFFFFF;}
</style>
<path class="st0" d="M123.1,78.4c-5.8,6.1-12.9,9.5-22.2,9.5c-9.4,0-16.6-3.4-22.4-9.5c-8.3-8.8-8.1-19.7-8.1-34.8
	c0-15.1-0.2-26,8.1-34.8c5.8-6.1,13-9.6,22.4-9.6s16.4,3.4,22.2,9.6c8.3,8.8,8.2,19.7,8.2,34.8S131.4,69.5,123.1,78.4 M111.2,19.1
	c-2.3-2.8-5.9-4.7-10.3-4.7s-8.1,1.8-10.4,4.7c-3.1,3.7-3.9,7.7-3.9,24.5s0.8,20.8,3.9,24.5c2.3,2.8,6,4.6,10.4,4.6s8-1.8,10.3-4.6
	c3.1-3.7,4-7.7,4-24.5C115.2,26.8,114.3,22.7,111.2,19.1"/>
<path class="st0" d="M52.9,42.6c4.2-2.1,10.2-8.3,10.2-18c0-14.9-9.4-24.5-25.5-24.5H9.7l0,0c0,0-4.8-0.2-7.6-0.2C0.6-0.1,0,1,0,1.9
	v6c0,1.1,0.5,2.5,2.1,2.5c0.7,0,2,0.5,2.4,3.1c0,0-0.1,73.6,0,73.7H39c14.7,0,25.3-8.8,25.3-25.1C64.3,50.5,57.9,45,52.9,42.6
	 M20.6,15.2h15.7c6.9,0,10.7,4,10.7,10.1c0,6-3.8,10-10.7,10H20.6V15.2z M37.4,72.1H20.6V50.7h16.8c7.3,0,10.8,4.8,10.8,10.6
	C48.1,67.2,44.7,72.1,37.4,72.1"/>
<path class="st0" d="M191.9,8.4c-5.4-5.8-13.2-8.3-21.8-8.3h-24.7V0c0,0-4.8-0.1-7.6-0.1c-1.5,0-2.1,1.1-2.1,2v6
	c0,1.1,0.5,2.5,2.1,2.5c0.8,0,2.5,0.6,2.6,4.7l0.1,72.2h29.7c8.5,0,16.3-2.6,21.8-8.3c9.3-9.8,8.3-22.5,8.3-35.6
	C200.2,30.2,201.1,18.2,191.9,8.4 M180.7,66.7c-2.8,3.5-6.5,5.4-12,5.4h-12.2V15.3h12.2c5.6,0,9.3,1.9,12,5.4
	c3,3.9,3.5,9.4,3.5,22.7C184.1,56.5,183.7,62.8,180.7,66.7"/>
<path class="st0" d="M261.5-0.1h-8.7l0,0h-6.7l-12.4,35.2L216.8,0c0,0-11.7,0-13,0c-1.5,0-2.2,0.9-2.1,1.8c0.1,1,0.2,4.9,0.3,6
	c0,1.1,0.6,2.5,2.2,2.5c0.8,0,1.9,0.1,3.4,3.5v-0.2l18,37.7l-7.3,23.6c-1.1,1.6-2.4,1.7-5,1.7c-1.6,0-2.1,1.4-2,2.5
	c0,1.1,0.2,5.3,0.3,6.2c0,1,0.1,1.7,3,1.7h0.1h16.5l2.5-6.5L257,13.6v0.1c1.2-3.5,2.3-3.5,3.1-3.5c1.6,0,2.1-0.6,2.4-2.2
	c0.3-1.7,1.6-5.4,1.5-6.3C263.8,0.8,263-0.1,261.5-0.1"/>
<path class="st0" d="M520.2,78.3c-5.8,6.1-12.9,9.5-22.2,9.5c-9.4,0-16.5-3.4-22.3-9.5c-8.3-8.8-8.1-19.7-8.1-34.8
	c0-15-0.2-25.9,8.1-34.7c5.8-6.1,13-9.5,22.3-9.5c9.4,0,16.4,3.4,22.2,9.5c8.3,8.8,8.2,19.7,8.2,34.7
	C528.4,58.6,528.6,69.5,520.2,78.3 M508.3,19.1c-2.3-2.8-5.9-4.7-10.3-4.7c-4.4,0-8.1,1.9-10.4,4.7c-3.1,3.6-3.9,7.7-3.9,24.4
	c0,16.8,0.8,20.8,3.9,24.5c2.3,2.8,6,4.7,10.4,4.7c4.4,0,8-1.9,10.3-4.7c3.1-3.7,4-7.7,4-24.5C512.3,26.8,511.4,22.8,508.3,19.1"/>
<path class="st0" d="M597.8,76.7c-0.9,0-2.9-0.3-4.4-2.8V74l-11.9-24.4c8-3,15.1-10.6,15.1-22.9c0-14.5-10-26.7-26.7-26.7h-28.3
	c-1.6,0-4.5-0.1-6.5-0.1c-1.5,0-2.1,1.1-2.1,2v6c0,1.1,0.5,2.5,2.1,2.5c0.8,0,2.6,0.6,2.6,4.9v-0.1v71.9h16.1V52.4h11.5l15.9,34.3
	l15.8,0.5h0.1c0.2,0,0.3,0,0.5,0h0.7l0,0c1.6-0.2,1.7-0.9,1.7-1.7v-6.2C599.9,78.2,599.5,76.7,597.8,76.7 M568.8,38.2h-15.1v-23
	h15.1c7,0,11.7,4.8,11.7,11.5C580.5,33.5,575.9,38.2,568.8,38.2"/>
<path class="st0" d="M376.2,76.7c-0.9,0-2.9-0.3-4.4-2.8V74l-11.9-24.4c8-3,15.1-10.6,15.1-22.9C375,12.2,365.1,0,348.2,0h-28.3
	c-1.6,0-4.5-0.1-6.5-0.1c-1.5,0-2.1,1.1-2.1,2v6c0,1.1,0.5,2.5,2.1,2.5c0.8,0,2.6,0.6,2.6,4.9v-0.1v71.9h16.1V52.4h11.6l15.9,34.3
	l15.8,0.5h0.1c0.2,0,0.3,0,0.5,0h0.7l0,0c1.6-0.2,1.7-0.9,1.7-1.7v-6.2C378.3,78.2,377.9,76.7,376.2,76.7 M347.2,38.2h-15.1v-23
	h15.1c7.1,0,11.7,4.8,11.7,11.5C358.9,33.5,354.2,38.2,347.2,38.2"/>
<path class="st0" d="M461.4,76.6c-0.8,0-2.4-0.6-2.6-4.5V14.2c0.3-3.3,1.8-3.9,2.5-3.9c1.6,0,2.1-1.4,2.1-2.5v-6
	c0-0.9-0.6-2.1-2.2-2.1c-1.9,0-4.7,0.1-6.3,0.1h-12l-21.4,47.1L400-0.2h-12.2c-1.6,0-4.4-0.1-6.3-0.1c-1.5,0-2.1,1.1-2.1,2.1v6
	c0,1.1,0.5,2.5,2.1,2.5c0.8,0,2.6,0.6,2.6,4.9l0.1-0.2l-0.1,72h5.2h4.7h6.3v-7.4V36.3l15.9,33.1H427l15.7-33.1v43.2l0.3,7.6h6h4.6
	c0,0,4.8,0.2,7.6,0.2c1.5,0,2.1-1.1,2.1-2v-6C463.5,78.1,463,76.6,461.4,76.6"/>
<path class="st0" d="M291.5,13.4c-0.4-2-0.5-2.8,0.2-3c0.8-0.3,1.3-1,1.2-2.5c-0.1-1.1-0.6-3.8-0.8-5.6C292,1.1,291.8,0,290.3,0
	h-3.5l0,0h-12.6l0,0l-25.5,74.2c-0.6,1.5-1.7,2.7-3.1,2.7c-1.9,0-2.1,0.8-2.5,1.7c-0.3,0.8-1.4,5.4-1.7,6.4c-0.2,1,0.1,2.3,1,2.3
	c0.6,0,2.3,0,3.4-0.1h15c0.2-0.1,5.1-15.4,5.1-15.4h29.4l5,15.4h16.5L291.5,13.4z M270.5,57.4l10.4-31.7L291,57.4H270.5z"/>
</svg>
