<?xml version="1.0" encoding="utf-8"?>
<!-- Generator: Adobe Illustrator 27.6.1, SVG Export Plug-In . SVG Version: 6.00 Build 0)  -->
<svg version="1.1" xmlns="http://www.w3.org/2000/svg" xmlns:xlink="http://www.w3.org/1999/xlink" x="0px" y="0px"
	 viewBox="0 0 159.8 119.8" style="enable-background:new 0 0 159.8 119.8;" xml:space="preserve">
<style type="text/css">
	.st0{fill:#FFFFFF;}
</style>
<g id="Layer_2">
</g>
<g id="Layer_1">
	<g>
		<polygon class="st0" points="31.9,65.9 31.9,87.8 43.4,87.8 47.9,83.3 47.9,70.3 43.4,65.9 		"/>
		<polygon class="st0" points="31.9,31.9 31.9,53.9 43.4,53.9 47.9,49.4 47.9,36.4 43.4,31.9 		"/>
		<path class="st0" d="M0,0v119.8h159.7V0H0z M59.9,54.4l-5.5,5.5l5.5,5.5v22.9L48.4,99.8H20V20h28.4l11.5,11.5V54.4z M89.8,57
			l-20,20V62.8l20-20V57z M129.2,99.8l-9.1-33.9h-8.4v33.9h-12V20h28.4l11.5,11.5v22.9l-8.4,8.4l9.9,37H129.2z"/>
		<polygon class="st0" points="111.8,31.9 111.8,53.9 123.3,53.9 127.7,49.4 127.7,36.4 123.3,31.9 		"/>
	</g>
</g>
</svg>
