<?xml version="1.0" encoding="utf-8"?>
<!-- Generator: Adobe Illustrator 27.6.1, SVG Export Plug-In . SVG Version: 6.00 Build 0)  -->
<svg version="1.1" id="Layer_1" xmlns="http://www.w3.org/2000/svg" xmlns:xlink="http://www.w3.org/1999/xlink" x="0px" y="0px"
	 viewBox="0 0 159.8 119.8" style="enable-background:new 0 0 159.8 119.8;" xml:space="preserve">
<style type="text/css">
	.st0{fill:#FFFFFF;}
</style>
<g transform="translate(1528 -767.34)">
	<g id="BR_x5F_Wordmark_x5F_Black" transform="matrix(.099796 0 0 .099796 -1563.9 731.42)">
		<rect x="359.7" y="359.9" class="st0" width="1600" height="1200"/>
		<g>
			<path d="M844.6,559.9H559.7v800h284.9l115.1-115.1v-229.7L904.6,960l55.1-55.1V675L844.6,559.9z M679.7,899.9v-220h115.1
				l44.9,44.9v130.3l-44.9,44.8 M794.8,1019.9l44.9,44.9v130.3l-44.9,44.9H679.7v-220"/>
			<path d="M1774.7,1359.9l-99.4-370.8l84.4-84.4V675l-115.1-115.1h-284.9v800h120v-340h83.9l91.1,340H1774.7z M1479.7,679.9h115.1
				l44.9,44.9v130.3l-44.9,44.9h-115.1V679.9z"/>
			<polygon points="1059.7,989.2 1059.7,1130.6 1259.7,930.6 1259.7,789.2 			"/>
		</g>
	</g>
</g>
</svg>
