<?xml version="1.0" encoding="utf-8"?>
<!-- Generator: Adobe Illustrator 27.6.1, SVG Export Plug-In . SVG Version: 6.00 Build 0)  -->
<svg version="1.1"
	 id="Layer_1" xmlns:dc="http://purl.org/dc/elements/1.1/" xmlns:rdf="http://www.w3.org/1999/02/22-rdf-syntax-ns#" xmlns:cc="http://creativecommons.org/ns#"
	 xmlns="http://www.w3.org/2000/svg" xmlns:xlink="http://www.w3.org/1999/xlink" x="0px" y="0px" viewBox="0 0 181.4 67.6"
	 style="enable-background:new 0 0 181.4 67.6;" xml:space="preserve">
<style type="text/css">
	.st0{fill:#FFFFFF;}
</style>
<g transform="matrix(.5 0 0 .5 .91170 1.0884)">
	<path class="st0" d="M48,0C34.6,0.3,26.6,7.4,22.2,13.4c-6,8.1-7.9,17.5-6.6,22.6l0.7,2.7l2.7,1c1.7,0.5,3.4,0.1,4.8-1.1
		c4-3.2,6.4-4.1,7-4.2l0.6,0C24.5,43.6,20.4,55,16.4,66.1C12.2,77.8,8.3,88.8,2,94.7l-2,1.9l0.5,2.7c0.5,3,0.9,9.5,0.6,16
		c0,2.3,1,4.1,2.7,5s3.8,0.7,5.4-0.5c10.7-8,17.9-29.8,24.3-49.1c2.6-8,5.2-15.6,7.5-20.8c-0.3,1.4-0.3,2.8,0,4.3
		c1.5,5.7,6.2,8.7,11.8,7.5c0,0,0.5-0.2,1.1-0.5c1.7,2.6,2.7,6.4,2.7,10.6c0,3.3-0.6,6.7-1.7,10c-1.5,4.2-6.2,14.1-17.6,13.8
		c-2.5-0.1-5.1-1.2-5.6-1.4c-2.9-1.7-5.6-0.5-6.8,1.4c-1.2,2-1.1,5,1.5,7c-0.3-0.2,0.2,0.1,0.2,0.1c2.5,2.2,8.3,7.5,20,7.1
		c9.7-0.4,18.8-7.3,23.7-17.5c0,0.1,0,0.3,0,0.4c0,1.5,0.7,2.6,1.1,3.1c1.3,1.7,4,2.9,7.3,0.8c1.9-1.2,4.4-2.8,7.1-5.3
		c4.6-4.2,9.1-10,14.3-18.3c0.2-0.4,2.9-4.6,5.4-10c0.6,0,1.1,0,1.7-0.1c-1.3,3.8-2.6,8.3-2.6,12.6c0,4.8,1.7,9.2,7,11.6
		c6,2.7,15.7,0.5,24.9-9.4c2.2,2.9,5.2,4.7,8.9,5.1C149,83,153,81.2,156,79c2.2,1.6,5.2,3.1,9.3,2.7c5.9-0.6,11.8-5.2,18-14.1
		l3.6-5.6c3.6-5.7,9.1-14.3,13.4-18.7c-0.3,0.8-0.7,1.8-1.4,2.9c-3.6,6-7,12.3-7,17.7c0,1.3,0.2,2.5,0.6,3.6c0.9,2.6,3,4.6,5.8,5.6
		c11.4,3.8,23.5-6,32.8-26.2c1.2-0.3,2.3-0.7,3.4-1.2c-1.3,2.9-2.2,5.5-2.2,7.9c0,4,1.6,7.2,3.9,9.3c5.7,5.5,15.7,5.2,23.2-0.2
		c3.2,1.8,6.9,2.9,10.9,3c8.6,0.1,16.2-3.8,20.8-10.8c4.6-6.9,5.4-15.8,2.2-23.8h0c-1.1-2.8-4.4-11,0.6-18c1.9-2.3,1-4.9,0.7-5.6
		c-0.3-0.7-1.7-3-5-3h-0.2l-0.2,0c-10.2,1-15.9,13-21.9,25.6c-0.6,1.3-1.4,2.7-2.1,4c-0.3-0.1-0.6-0.2-0.8-0.2c-1-0.1-1.9,0-2.9,0.1
		c0-0.2,0-0.3-0.1-0.5c-0.2-0.6-0.7-1.1-1.1-1.6c0.8-0.2,1.8-0.5,1.8-0.5c2.8-0.7,3.8-3.6,4.2-4.9c0.2-0.8,0.3-1.7,0.3-2.5
		c0-1.9-0.5-3.7-1.6-5.3c-1.7-2.5-4.4-4.2-7.5-4.6c-6-0.8-12.5,4.2-15.2,11.1c-2.2,2.5-4.6,4.2-7,5.4c-0.6-4.9-3.6-8.4-8.1-9.2
		c-4.9-0.9-9.8,1.8-11.8,6.3c-0.1,0.2-0.1,0.4-0.2,0.6c-1-1.7-2.3-3.1-4.1-3.8c-12.9-5.2-22.7,10.4-31.3,24.1
		c-3.4,5.5-6.7,10.7-9.8,14.2c-0.3,0.3-0.4,0.4-0.6,0.6c0.1-0.9,0.3-2,0.9-3.4c0.1-0.2,11.8-28,11.8-28L166.2,34
		c0,0-0.2,0.5-0.3,0.8c-1.5-0.7-3.1-1.4-5-1.6c-14.5-1.8-23.4,11-26.9,23.7c-0.2,0.7-1.5,3.2-2.6,5.3c-4.7,8.4-8.7,10.7-10.3,10.8
		c-0.1-0.5-0.2-0.9-0.2-1.6c0-4.4,2.2-13.5,4.6-19.4c0.4-1,0.5-2,0.5-2.8c0-2.1-1.1-3.4-1.6-3.9c-1.3-1.2-3.4-1.9-5.9-0.7
		c-2.8,1.6-5.5,2.6-8.1,3.2c0-0.4,0.1-0.9,0.1-1.2c0-1.1-0.1-2.1-0.5-3c-1.5-4.1-4.6-6.9-8.5-7.5c-3.9-0.6-7.8,1-10.3,4.3
		c-1.7,2.2-2.5,4.7-2.5,7.4c0,1.7,0.3,3.4,1,5.2c0.6,1.6,1.8,3.2,3.1,4.6c-1.5,3-3.2,6.3-4.8,9.3c-4.9,8.7-9.5,14.9-15.7,21.5
		c-0.3,0.3-0.4,0.5-0.6,0.8c0.2-0.5,0.3-0.9,0.5-1.4C73.4,83.8,74,79.9,74,76c0-8.2-2.9-16-8.2-22.3c8.1-6.4,13.1-15.7,13.1-25.5
		c0-1.9-0.2-3.9-0.6-5.8c1.2-0.4,2.4-0.8,3.7-1.2c4.5-1.2,4.1-5.2,4.1-5.7C86,15,85.4,11,80.6,11.1c-2.4,0-4.7,0.2-7,0.4
		C68.8,5,60.6,0,48,0L48,0z M46.9,15.6c0.5,0,1.1,0,1.7,0c1.1,0.1,2.8,0.4,4.6,1.2c-6.9,3.1-12.9,7.5-18,13l0-0.6
		c-0.1-1.1-0.2-6.8,3.2-10.4C40.2,16.8,43.1,15.7,46.9,15.6L46.9,15.6z M314.4,20.1l-4.5,7c-2.5,3.8-2.8,7.5-3,10c0,0-0.1,1-0.1,1.4
		c-0.2,0.2-0.5,0.6-0.5,0.6l-2.1,2.3l-0.2,0.3c-3,3.8-3.5,6.9-3.5,14.6l0,0.7c-0.2,0.3-0.5,0.6-0.5,0.6c-2.5,3.3-2.6,7.2-2.7,10.1
		c0,0-0.1,2.3-0.1,2.4c-7.3,1.1-152.1,21.9-155.3,22.4c-9.3,1.2-13.6,8.6-12.9,14.9c1.2,10.8,8.8,14.1,15.6,13.5
		c4.3-0.4,109.4-16.1,146.8-21.6c-0.3,1.5-0.5,3.1-0.5,4.7c0,2,0.4,4.2,1.1,6.5c-0.6,1.4-1.1,2.9-1.3,4.6c-0.1,1-0.2,2-0.2,2.8
		c0,6,2.6,9.3,4.9,11.1c3.7,2.8,8.6,3.1,14.5,1c6.1,1.1,12.9,0.5,19-1.8c5.7,1.1,11.6-2.3,14.5-4c0,0,0.1-0.1,0.1-0.1h0.3l4-0.1
		l0.7-0.1c2.6-0.5,7.6-1.4,9.8-6.4c0.7-1.4,0.9-2.9,0.9-4.2c0-3.4-1.6-6.3-2.3-7.5c0-0.2,0-0.4,0-0.7c0-1-0.1-2.2-0.4-3.5
		c-0.8-3.8-2.8-6.5-4.3-8.5l-1.2-1.7l-0.5-1.3c-0.2-0.6-0.4-1.2-0.8-1.9c3.2-2.6,4.5-5.5,5-7.5c1.1-4.2-0.1-8.6-3.2-11.7
		c-3.1-3.1-7.7-4.5-12.8-4.1c-0.2-6.7-3.2-10.5-5-12.5c0-0.3,0-0.7,0-0.7c0-3.9-0.1-11.2-5.9-17c-1.3-1.3-1.4-1.6-1.9-2.9
		c0,0-0.6-1.4-0.8-1.8c-0.3-0.8-1.2-2.6-3.9-4.7L314.4,20.1L314.4,20.1z M256.5,27.4c0.1,1.4,0.8,2.5,1.2,3v0c0,0,0.3,0.3,0.5,0.5
		c-1-0.3-2.1-0.5-3.4,0c0,0-0.1,0-0.2,0c0-0.1,0-0.1,0-0.2c0-1.1,0.6-2.2,1.3-2.8C256.2,27.6,256.3,27.5,256.5,27.4L256.5,27.4z
		 M61.4,29.2c0,2.6-0.7,8.2-5.1,13.7l-0.1,0.1c-0.2,0.2-0.4,0.4-0.6,0.5c-4-2-8.1-1.7-11.3,0.8c-0.3,0.3-0.6,0.5-0.9,0.8
		c0.1-0.1,0.1-0.2,0.2-0.3l0.9-1.3C47.7,39.3,51.2,34.4,61.4,29.2L61.4,29.2z M280.5,33.6c0.2,1,0.4,1.9,0.4,3c0,0.4,0,0.9-0.1,1.4
		c-0.4,8-5.1,10.7-9.5,11.6c3-4.5,5.5-9.2,7.7-13.4C279.6,35.3,280,34.4,280.5,33.6L280.5,33.6z M215.4,41.3
		c0.1,0.3,0.2,0.6,0.3,0.8c0.6,1.1,1.5,1.8,2.3,2.5c-3.6,6.5-7,10.7-9.1,12.1c0.7-2.7,2.8-7,4.1-9.6l1.7-3.6
		C215.1,42.7,215.2,42.1,215.4,41.3L215.4,41.3z M250.8,46.2c-0.1,0.8-0.5,1.5-0.5,2.2c0,1.6,0.3,3.1,0.8,4.6
		c-1.1,0.4-2.1,0.5-2.6,0.1c-0.3-0.3-0.5-0.8-0.5-1.4c0-0.8,0.3-1.9,0.9-3.1C249.4,47.8,250,47,250.8,46.2L250.8,46.2z M157.6,47.4
		c0.3,0,0.3,0.1,0.4,0.1c0.2,0.2,0.3,0.8,0.3,1.7c0,1.3-0.3,3.2-1.4,5.9c-3.7,9.7-6.3,11.4-7,11.7c-0.2,0.1-0.4,0.2-0.9,0
		c-0.3-0.1-1-1.9-0.2-5.9C150.4,53.5,155.3,47.4,157.6,47.4L157.6,47.4z"/>
	<g>
		<path d="M48,4.9C25.9,5.4,18.5,28,20.2,34.8c0,0.1,0.2,0.3,0.4,0.1c4.1-3.4,7.6-5.2,9.8-5.4c-0.3-6,1.7-19.6,18.4-18.8
			c3.7,0.2,10.1,2.2,14.1,7.7c-9.2,2.6-19.1,7.7-27,17.9C21.6,54.7,19,85.5,5.2,98.3c0.6,3.7,1,10.7,0.7,17.1c0,0.7,0.4,0.5,0.6,0.4
			C22,104.2,31,54,39.9,41.8c4-5.5,8-12.3,24.9-19.6c0.6,1.5,1,3.1,1.3,4.9c0.4,3.3-0.2,11.6-6.1,19c-1.4,1.7-3.7,3.2-4.4,3.1
			c-0.9-0.7-0.8-0.5-1.7-1.1c-5.2-2.8-9.1,1.3-8.2,5.1c0.7,2.5,2.8,4.5,6.3,3.8c1.1-0.2,2.9-1.9,3.3-1.6c12.3,10.2,6.1,45.8-18,45.2
			c-3.7-0.1-7.2-1.7-7.8-2c-0.6-0.4-0.6-0.2-0.2,0.1c2,1.7,6.6,6.7,17.1,6.3c19.6-0.8,33.6-33.5,12.3-52.1
			C72.2,45.5,77,30.5,72.5,19.1c2.5-0.9,5.2-1.8,8.2-2.7c0.7-0.2,1.2-0.4,0-0.4c-2.8,0.1-5.9,0.2-9.3,0.7C67.5,9.8,59.8,4.9,48,4.9
			L48,4.9z M289.8,9.6c-7.4,0.7-12.3,10.6-18.1,22.9c-1.2,2.6-2.6,5.3-4.1,7.9c-2.1-1.7-8.8-3.1-11.7,3.7c-1.6,3.9-0.9,7.7,1.3,10.6
			c-0.6,0.6-1.2,1.1-1.7,1.6c-6.9,5.6-15.9-0.2-10.8-10c2.5-4.8,8.6-8.5,11-9.4c1.1-0.5,2.4-2.1,0.5-1.4c-2.3,0.8-5.5-0.5-6.1-2.8
			c-1-3.4,0.6-6.8,2.8-8.7c5.7-4.7,8.9-0.2,8.4,2.5c-0.3,1,0.4,0.3,0.7-0.9c0.8-3.2-1.6-5.8-4.8-6.2c-4.2-0.5-9.3,3.9-10.7,9.2
			c-4.8,5.6-11.5,8.7-16.8,9.3c0.8-2.5,1.4-4.8,1.3-6c-0.6-7.2-8.8-6.6-11-1.8c-2.1,4.7-1.4,11.8,4.5,12.6
			c-4.5,9.2-12,20.8-17.7,19.5c-6.8-1.5-0.4-12.3,3.6-21c3.2-6.9,1.9-10.8-0.7-11.8c-13.3-5.3-24.8,24.5-35.9,37
			c-7.1,8-11.4,0.2-7.5-8.2l8.5-20.2l-5.3,0.5l-1.7,4.4c-0.7-1.8-3.4-4.4-7.5-4.9c-11.5-1.5-18.8,9.6-21.8,20.2
			c-0.4,1.4-2.5,5.3-3.1,6.4c-6,10.8-12.6,15-17,12.8c-5.7-2.8,0.4-22.1,2.6-27.4c0.4-1,0.2-1.4-0.5-1c-5,3-11.3,4.7-16.3,4.5
			c1.3-3.5,1.9-6.6,1.4-8.2c-3.3-8.8-15-3.3-11.4,5.8c0.8,2,2.3,3.9,4.6,5.2c-2,4.3-4.5,9.2-6.7,13c-5.7,10-10.6,16.3-16.4,22.4
			c-1.4,1.5-0.2,1,0.5,0.6c2-1.2,4.1-2.7,6.4-4.8c4.3-4,8.7-9.7,13.4-17.3c1.8-2.9,4.4-7.8,6.5-12.5c1.9,0.4,4.1,0.5,6.5,0.1
			c1.4-0.2,3.9-1.4,4.9-1.9c0.3-0.1,0.4,0.2,0.4,0.2c-0.5,4.9-10.5,22.1-0.9,26.5c5.4,2.4,15.5-1.2,24.3-14.2c0.6,5.2,3.2,9,8,9.4
			c3.6,0.1,8.7-3.2,10.2-5.3c2.9,2.6,10.1,11.1,23.5-7.9c3.2-4.6,11.5-18.8,17.9-25.3c6.7-6.8,11.8-0.8,5.7,9.4
			c-4.4,7.4-9.8,17.4-3.2,19.6c11,3.7,21.6-11,28-25.7c7.2-1.1,15.9-7.8,18.3-10.2c0.2,1.7,1.1,4,2.7,4.8c-3.1,2.3-6.3,4.8-8.1,7.1
			c-11,15.7,6.5,22.9,17.2,13.7c0.5-0.4,0.9-0.8,1.4-1.3c2.8,2.4,6.8,3.9,11.2,4c14.8,0.2,23.9-14.2,18.5-27.8v0
			c-1.2-2.9-5.5-13.4,1.2-22.8C290.6,9.8,290.6,9.6,289.8,9.6L289.8,9.6z M282.4,22c-0.3,3.1,3.9,7.8,3.2,16.3
			c-0.6,12.6-9.9,15.8-14.8,16.4c-3.1,0.4-6.1-0.1-8.4-1.1C271.8,42.5,277.7,26,282.4,22L282.4,22z M315.3,24.9l-2.6,4.1
			c-2,3.1-2.2,6.1-2.4,8.4l-0.3,2.2c-0.1,0.6-0.5,1-1.5,1.9l-1.8,2l-0.3,0.3c-2.1,2.7-2.7,4.6-2.7,12.4c0,1.7-0.2,2.1-0.2,2.1
			c0,0-0.5,0.6-0.5,0.6l-0.6,0.8c-1.8,2.3-1.9,5.3-2,8l-0.2,2.8c-0.2,1.3-0.4,2.1-0.7,2.6c-3.3,0.5-156.1,22.5-157.5,22.7
			c-8,1.1-10.3,7.3-9.9,11c1.1,10.2,8.7,10.6,11.9,10.4c4.4-0.4,122.4-18,151.7-22.4c-0.9,2.6-1.8,5.6-1.8,8.9
			c0,2.2,0.4,4.4,1.5,6.8c-0.8,1.5-1.4,3-1.6,4.7c-0.1,0.9-0.2,1.6-0.2,2.4c0,4.6,1.8,7.1,3.5,8.4c4.1,3.1,9.5,1.4,12.4,0.2
			c5.9,1.2,12.5,0.5,18.4-1.9c4.8,1.8,10.4-1.6,13.4-3.4l0.7-0.4c0.3-0.2,0.6-0.2,1.7-0.1l3.1-0.1l0.7-0.1c2.5-0.4,5.8-1.1,7.3-4.4
			c0.4-0.9,0.6-1.9,0.6-2.8c0-2.2-1-4.2-1.8-5.8h0l-0.3-0.4c0,0-0.1-0.2-0.2-0.3c0-0.1,0-0.2,0-0.2c0-0.4,0.1-1,0.1-1.6
			c0-0.8-0.1-1.7-0.3-2.8c-0.6-3-2.3-5.3-3.7-7.1l-1.4-2.1l-0.8-1.8c-0.4-1.2-1-2.6-2.1-4.3c4.3-2.4,5.7-5.4,6.2-7.3
			c0.8-3-0.1-6.1-2.3-8.2c-2.7-2.7-7.1-3.7-12.1-2.9c-0.2-0.3-0.4-0.6-0.7-0.9c0,0-0.9-1.3-1.1-1.6c0-0.2,0-0.5,0-0.7
			c0-5.9-2.7-8.9-4.3-10.8c0,0-0.5-0.6-0.6-0.8c0-0.5-0.1-2-0.1-2c0-3.6-0.1-9.7-4.9-14.5c-1.8-1.8-2.1-2.6-2.7-4.1l-0.8-1.9
			c-0.2-0.4-0.6-1.4-2.6-3L315.3,24.9L315.3,24.9z M225.7,29.7c0.2,0,0.4,0.1,0.6,0.2c2.2,0.8,2.2,3.2,0.3,8.1
			c-0.8-0.1-1.6-0.3-2.3-0.5C220.9,36,222.6,29.4,225.7,29.7L225.7,29.7z M261.6,42c1.6,0,3,1.3,3.6,2.5c-1.7,2.8-3.6,5.3-5.4,7.6
			c-2.2-1.8-3.1-4.4-1.7-7.1h0C259.1,42.8,260.4,42,261.6,42L261.6,42z M157.6,42.5c4.2,0,7.6,4.4,3.8,14.5
			c-4,10.5-8.5,16.8-14.2,14.3C138.6,67.4,147.9,42.5,157.6,42.5L157.6,42.5z M99.6,43.9c1.4,0,2.6,1,2.5,3.4c0,0.8-0.8,2.9-1.9,5.5
			c-1.5-0.6-2.8-1.4-3.6-2.7C94.6,46.5,97.3,43.8,99.6,43.9z"/>
	</g>
	<g>
		<path class="st0" d="M350.4,109.1c-1.1-1.2-1.1-1.9-1-3.1c0.1-0.8,0.1-1.9-0.1-3.2c-0.5-2.2-1.8-3.9-3-5.6l-1.7-2.5l-1-2.3
			c-0.5-1.5-1.1-3-2.9-4.8c-0.1-0.2-0.3-0.3-0.4-0.5l-1.5-1.9c4.9-1.4,8-3.8,8.8-6.7c0.4-1.6,0-3.3-1.3-4.5
			c-1.8-1.7-5.6-2.9-11.3-1.3c0,0,0,0,0-0.1c-0.5-0.9-1.1-1.9-1.8-2.9c-0.1-0.1-0.2-0.2-0.2-0.3c-0.4-0.6-0.9-1.4-1.3-2
			c-0.2-0.5-0.4-0.8-0.4-1.2c0.4-5.2-1.8-7.6-3.3-9.4c-0.7-0.8-1.3-1.5-1.5-2.2c-0.2-0.8-0.2-1.9-0.2-3.2c0-3.4-0.1-8.1-3.7-11.8
			c-2.3-2.3-2.9-3.7-3.5-5.4l-0.7-1.6c-0.2-0.6-1.2-1.4-1.6-1.7l-0.6-0.4l-0.4,0.6c-1.5,2.3-1.6,4.5-1.8,6.5l-0.4,2.8
			c-0.4,1.8-1.5,2.8-2.5,3.8l-1.5,1.6l-0.3,0.4c-1.3,1.7-1.9,2.7-1.9,9.9c0,3.4-0.5,4-1.5,5.2l-0.6,0.7c-1,1.3-1.1,3.4-1.1,5.6
			l-0.2,3.3c-0.1,0.4-0.1,0.8-0.2,1.2l-0.4,1.6c0,0,0,0,0,0h0c-0.4,1.4-1,2.2-1.6,2.7c-0.1,0-0.1,0.1-0.2,0.1
			c-0.4,0.1-4.7,0.7-11.6,1.7l-1.2,0.1c0,0,0,0,0,0c-4.3,0.6-9.6,1.4-15.5,2.2c0,0,0,0,0,0l-3.1,0.4c-33.2,4.8-84.4,12.2-110.7,16
			c-0.1,0-0.1,0-0.2,0l-3.4,0.6l-13.3,1.9c-5.4,0.7-7,4.5-6.7,6.8c0.2,1.9,0.8,7.6,7.9,7c0.7-0.1,5-0.7,11.6-1.6c0,0,0.1,0,0.1,0
			l3.5-0.5c22.9-3.3,66.7-9.8,99.9-14.8l0.3,0l1.8-0.3c13.6-2.1,25.2-3.8,32.6-4.9c0,0,0.1,0,0.2,0l5.1-0.8c0,0,0,0,0,0
			c0.8-0.1,1.5-0.2,2-0.3c-0.2,1.7-0.7,3.5-1.3,5.4c-0.9,2.5-1.8,5.3-1.8,8.2c0,2.2,0.6,4.4,2,6.7c-0.1,0.1-0.2,0.5-0.2,0.5
			c-1.3,2.1-1.8,3.4-2,4.9c-0.1,0.7-0.1,1.3-0.1,1.9c0,2.5,0.7,4.2,2,5.2c2,1.5,5.3,1.3,9.8-0.7c6.1,1.6,13.2,0.8,19.2-2.1
			c3.2,2.2,8.3-0.9,11.1-2.6l0.7-0.4c1.4-0.8,2.6-0.7,3.8-0.6l2.1,0l0.7-0.1c2-0.4,3.9-0.7,4.6-2.2C352,113,351.7,111.4,350.4,109.1
			L350.4,109.1z M155,110.4c-6.5,0.9-10.6,1.5-11.3,1.6c-5.1,0.4-6.1-2.8-6.4-5.7c0-0.1,0-0.2,0-0.3c0-1.4,1-4.3,5.6-4.9l11-1.6
			c0.9,0.7,1.7,2.3,2,4.4C156.2,106.5,155.9,109.1,155,110.4L155,110.4z M253.3,95.9c-30.8,4.6-68.9,10.2-91.2,13.5
			c0.8-2,0.8-4.6,0.5-6.6c-0.3-1.8-0.9-3.3-1.6-4.3l91.1-13.2C252.7,88.2,253.3,91.4,253.3,95.9L253.3,95.9z M259.6,90.4
			c-0.2-2.3-0.6-4.2-1-6l6-0.9L259.6,90.4L259.6,90.4z M264.8,94.2l4-5.6c0.2,1.5,0.3,3.2,0.2,5C267.6,93.8,266.2,94,264.8,94.2
			L264.8,94.2z M275.5,92.6c0-1.8-0.1-3.5-0.2-5l4.6,4.3C278.4,92.2,277,92.4,275.5,92.6L275.5,92.6z M283.6,86.1
			c-0.7-0.6-3.5-3.2-5-4.6l9.1-1.3C286.3,82,284.1,85.4,283.6,86.1L283.6,86.1z M292.9,90c-1.6,0.2-3.3,0.5-5.2,0.8l4.9-6.5
			C292.8,85.9,293,87.8,292.9,90L292.9,90z M345.4,74.9c0.6,0.6,1,1.4,1,2.3c0,0.3,0,0.5-0.1,0.8c-0.6,2.4-3.7,4.5-8.3,5.8
			c-0.4-0.5-0.8-1.3-1.1-2c-0.1-0.3-0.3-0.6-0.4-0.9c0,0,0-0.1-0.1-0.1c-0.3-0.8-0.5-1.5-0.6-1.9c-0.2-0.8-0.3-1.6-0.4-2.3
			c0-0.6,0-1.2,0-1.6c0,0,0-0.2-0.1-0.5v-0.3c0,0,0,0,0-0.1v-0.1c0-0.1,0-0.1,0-0.2C340.5,72.5,343.9,73.5,345.4,74.9z M334.3,77.6
			c0.1,0.4,0.1,0.9,0.3,1.3c0,0,0,0,0,0v0l0,0c0.1,0.4,0.2,0.9,0.4,1.4c-0.9,0-1.7-0.2-2.4-0.5C333.1,79.2,333.7,78.4,334.3,77.6z
			 M332.6,71.3c-1.4,2-3.1,4.1-5,6.2c-1.5-0.8-4-2.8-5.7-4.4c0.6-0.1,1.1-0.2,1.7-0.2L332.6,71.3L332.6,71.3z M330.2,85.3
			c-0.8,0-1.6,0-2.2-0.1c0.2-0.2,0.4-0.4,0.6-0.6C329.1,84.9,329.6,85.1,330.2,85.3z M309.7,79.9c-0.1-1.3-0.4-2.4-0.9-3.3
			c-0.1-0.2-0.2-0.4-0.4-0.6c1.9-0.6,4-1.2,6.1-1.6c2.7,2.7,6.5,5.7,8.7,7.2c-0.7,0.5-1.3,1-2,1.5l-1.7-0.6
			C316.7,81.6,312.9,80.3,309.7,79.9L309.7,79.9z M313.9,87.1c-2,0.8-4.2,1.4-6.5,1.8c0.7-1.2,1.3-2.4,1.6-3.5
			c1.2,0.2,2.4,0.6,3.5,1.1C313,86.7,313.4,86.9,313.9,87.1L313.9,87.1z M305.6,67.8c0-2,0.1-3.8,0.8-4.8l0.5-0.6
			c1.2-1.5,1.8-2.4,1.8-6.1c0-7.1,0.5-7.7,1.6-9l0.3-0.4l1.3-1.4c1.1-1.1,2.4-2.3,2.9-4.5l0.4-3c0.1-1.7,0.4-3.5,1.3-5.2
			c0.3,0.2,0.5,0.4,0.5,0.6c0,0,0.7,1.6,0.7,1.6c0.7,1.7,1.3,3.3,3.8,5.9c3.3,3.3,3.3,7.4,3.3,10.8c0,1.4,0,2.6,0.3,3.5
			c0.3,1,1,1.9,1.8,2.8c1.4,1.5,3,3.4,3,7.3c0,0.3,0,0.7,0,1c0,0.1,0,0.1,0,0.2l-6.3,1.1c1.6-3.8,0.5-8.6-1.1-11.8
			c-0.2-0.3-0.6-0.5-0.9-0.3c-0.3,0.2-0.5,0.6-0.3,0.9c1.6,3.1,2.7,7.9,0.7,11.4l-1.1,0.2c-5.3,0.8-10.8,1.6-15.5,3.2L305.6,67.8
			L305.6,67.8z M300.5,88.9c-0.3,0.1-0.7,0.1-1.1,0.2c0.1-4.2-0.5-7.3-1.2-10.4l3-0.4c0,0,0.1,0.1,0.1,0.1c0.8,0,1.3,0.3,1.7,1
			C303.9,81.4,302.7,86,300.5,88.9L300.5,88.9z M350.3,113.6c-0.4,0.8-1.9,1.2-3.6,1.5l-0.7,0.1h-1.8c-1.3-0.1-2.9-0.2-4.6,0.8
			l-0.7,0.4c-2.4,1.5-7.5,4.6-10,2.5l-0.3-0.3l-0.4,0.2c-2.2,1.1-10.1,4.5-18.8,2.1l-0.2-0.1l-0.2,0.1c-4.1,1.8-7.1,2.2-8.6,1
			c-1.3-1-1.7-2.9-1.4-5.9c0.1-1.3,0.6-2.4,1.8-4.3l0.6-1.5L301,110c-3.2-5-1.7-9.5-0.2-13.9c9.5-0.4,16.2-2.5,21.7-6.3
			c5.7,1.4,13.1,1.2,18-0.5c1,1.3,1.5,2.4,1.9,3.6l1.1,2.6l1.8,2.6c1.2,1.6,2.4,3.2,2.8,5.1c0.1,0.6,0.2,1.1,0.2,1.6
			c0,0.4,0,0.8-0.1,1.2c0,0.3-0.1,0.6-0.1,1c0,1,0.2,1.9,1.3,3.1c0.7,1.2,1,2.3,1,3C350.4,113.2,350.4,113.4,350.3,113.6
			L350.3,113.6z"/>
		<path class="st0" d="M314.4,56.7c0.1,0.4,0,0.8-0.3,0.9c-1.4,0.7-2.5,2.3-2.9,4.1c-0.3,1.7,0.1,3.4,1.2,4.7c0.3,0.3,0.2,0.7,0,1
			c-0.3,0.2-0.7,0.2-1-0.1c-1.4-1.7-2-3.7-1.6-5.9c0.4-2.2,1.9-4.2,3.7-5.1C313.8,56.2,314.2,56.3,314.4,56.7L314.4,56.7z M336,91.5
			c0.4,0,0.7,0.3,0.6,0.7c0,0.9,1,1.8,2.3,2.8c2.2,1.8,5.3,4.3,4,8.8c-0.1,0.4-0.5,0.6-0.8,0.5c-0.4-0.1-0.6-0.5-0.5-0.9
			c1-3.6-1.3-5.5-3.5-7.3c-1.5-1.2-2.9-2.4-2.8-4C335.3,91.8,335.6,91.5,336,91.5L336,91.5z M343.1,106.8c-0.2,0.9-0.5,1.1-0.7,1.2
			l-1.4,0l-1.5-0.1c-1,0.1-1.9,0.5-2.6,1.1l-2.4,1.9l-0.5,0.2c-1,0.2-2,0.1-3-0.2c-0.4-0.1-0.7,0-0.9,0.4c-0.1,0.4,0,0.8,0.4,0.9
			c1.3,0.5,2.5,0.6,3.8,0.3l1.1-0.5l2.4-1.9c0.5-0.5,1.3-0.8,2-0.8l1.2,0.1l2,0c1.3-0.4,1.6-1.8,1.7-2.2c0.1-0.4-0.1-0.7-0.5-0.8
			C343.6,106.2,343.2,106.4,343.1,106.8L343.1,106.8z M323.8,94.2c1.5,2.4,1.6,5.5,0.3,8.5c-0.3,0.6,0,1.3,1,2.3
			c0,0,0.4,0.3,0.3,0.6c-0.1,0.3-0.1,0.6-0.4,0.6c-0.2,0-0.6,0-0.9-0.2c-0.7-0.7-2-2.2-1.3-3.9c1.1-2.6,1-5.2-0.2-7.1
			c-0.2-0.3-0.1-0.8,0.2-1C323.2,93.8,323.6,93.9,323.8,94.2L323.8,94.2z M309.7,96.4c1.3,1.3,0.9,3.3-0.2,4.6l-1.7,1.4
			c-1.5,1.1-2.4,1.9-2,3.3c0.1,0.4-0.1,0.7-0.5,0.8c-0.4,0.1-0.7-0.1-0.8-0.5c-0.7-2.4,1.1-3.7,2.5-4.8l1.5-1.3
			c0.4-0.4,1.2-1.8,0.3-2.7c-0.3-0.3-0.3-0.7,0-1C309,96.1,309.4,96.1,309.7,96.4L309.7,96.4z M306.5,112.5c0.6,1.6,2.3,2.6,3.8,2.2
			l1.9-0.9l2-0.9c0.8-0.3,1.5,0,2.2,0.2c0.5,0.2,1,0.3,1.3,0.2l0.6-0.2l0,0c0,0,0.9-0.4,1.2-0.1c0.7,0.6-0.3,1,0,0.9l-1.1,0.7
			l-0.1,0c-0.8,0.3-1.6,0.1-2.2-0.2c-0.5-0.2-1-0.3-1.4-0.2l-1.8,0.8l-2.2,1c-2.2,0.6-4.6-0.7-5.4-3c-0.1-0.3,0-0.8,0.4-0.9
			C305.9,112,306.3,112.2,306.5,112.5L306.5,112.5z M318.8,41.3c0.3,0.2,0.5,0.6,0.3,0.9c-0.6,1.5-0.6,3.5,0.1,5.3
			c0.6,1.4,1.4,2.4,2.4,2.7c0.4,0.1,0.5,0.5,0.4,0.9c-0.1,0.4-0.5,0.5-0.9,0.4c-1.3-0.5-2.5-1.7-3.2-3.5c-0.9-2.1-0.9-4.6-0.1-6.4
			C318.1,41.3,318.5,41.2,318.8,41.3L318.8,41.3z"/>
	</g>
	<g>
		<path d="M322.6,68.9C322.6,68.9,322.6,68.9,322.6,68.9c2.5-0.4,7-1.2,7.7-1.3c0,0,0.1,0.1,0.1,0.1c0.3,0.7,0.8,1.5,1.4,2.3
			l-8.4,1.4c-1.6,0.2-3.2,0.5-4.8,0.8c-2.3,0.4-3.6,0.6-4,0.7c-2.4,0.5-4.8,1.1-7,1.9c-0.8-0.7-1.6-1.2-2.6-1.4
			c0.1-0.3,0.1-0.6,0.2-1c4.8-1.7,10.4-2.5,15.9-3.3C321.1,69.2,321.7,69.1,322.6,68.9L322.6,68.9z M339.4,88.1
			c-4.3,1.4-10.3,1.6-15.3,0.6c0.1-0.1,0.3-0.2,0.4-0.4c0.2-0.1,0.4-0.3,0.6-0.4c0.6-0.5,1.2-1,1.7-1.5c2.7,0.6,8.1,0.2,10.7-0.8
			C338,86.4,338.6,87.2,339.4,88.1C339.4,88,339.4,88.1,339.4,88.1L339.4,88.1z M290.3,79.8c0.5-0.1,1-0.1,1.4-0.2
			c0.1,0.4,0.3,1.4,0.5,2.1c0,0.2,0.1,0.5,0.1,0.7c-0.5,0.6-6.2,8.2-6.5,8.7c-0.5,0.1-3.7,0.5-4.2,0.6c-0.4-0.4-6.2-5.8-6.6-6.3
			c-0.2-1.1-0.4-2.2-0.7-3.3c0.8-0.1,2.1-0.3,2.5-0.4l6.4,5.9c0.1,0.1,0.3,0.2,0.5,0.2c0.2,0,0.4-0.2,0.5-0.3c0,0,4.9-7.2,5.2-7.7
			L290.3,79.8L290.3,79.8z M272.9,82.3l0.7,3.1c0.3,1.9,0.6,4,0.6,6.5c0,0.3,0,0.6,0,0.9c-0.7,0.1-2.8,0.4-3.8,0.6
			c0-0.2,0-0.5,0-0.7c0-2.2-0.2-4.1-0.5-5.9h0c0-0.3-0.1-0.7-0.2-1.3c-0.1-0.4-0.1-0.7-0.2-1.1c-0.1-0.6-0.2-1.1-0.3-1.5
			c0.3-0.1,0.8-0.1,1.3-0.2C270.5,82.7,272.9,82.3,272.9,82.3z M253.4,85.2c0.9-0.1,3-0.4,3.8-0.6c0.6,2.6,1.2,5.4,1.2,9v1.5
			c-0.8,0.1-2.8,0.4-3.8,0.5c0-0.2,0-0.5,0-0.7C254.6,90.9,254.1,87.9,253.4,85.2L253.4,85.2z M259.8,95c0-0.6,0-1.3,0-1.8v-0.7
			c0.3-0.3,6.3-8.8,6.6-9.2c0.3,0,0.8-0.1,1.4-0.2c0.2,0.8,0.6,3,0.7,3.5c-0.4,0.5-5.3,7.4-5.6,7.9c-0.2,0.1-1.1,0.2-2,0.3
			C260.6,94.8,260.2,94.9,259.8,95z M294.3,89.8c0-0.2,0-0.4,0-0.6c0-2.6-0.3-4.8-0.6-6.6c0,0,0-0.1,0-0.2c-0.3-1.5-0.5-2.4-0.7-2.9
			c1-0.1,3-0.4,3.8-0.5c0.7,2.9,1.3,5.7,1.3,9.5c0,0.3,0,0.6,0,0.8C297,89.4,295.8,89.6,294.3,89.8L294.3,89.8z M330,83
			c0.1-0.1,0.2-0.2,0.2-0.3c0.5-0.6,1.1-1.3,1.4-1.7c1.1,0.5,2.4,0.8,3.7,0.8c0.2,0.4,0.3,0.8,0.5,1.2c0.2,0.3,0.3,0.6,0.5,0.9
			c0,0.1,0,0.1,0.1,0.1c0,0.1,0,0.1,0,0.1c-2,0.4-4.6,0.3-7-0.8C329.7,83.4,329.8,83.2,330,83L330,83z M315.9,86.2
			c-1-0.2-1.9-0.6-3-1c-1.1-0.5-2.3-0.9-3.6-1.1c0.2-0.9,0.3-1.9,0.3-2.8c3,0.4,6.6,1.6,9.3,2.6l0.7,0.2
			C318.5,84.9,317.3,85.6,315.9,86.2C316,86.2,316,86.2,315.9,86.2L315.9,86.2z M324.3,80.7c-1.9-1.2-5.4-4-8.2-6.6
			c0.7-0.1,1.4-0.3,2.1-0.4c0.6-0.1,1.2-0.2,2-0.3c1.4,1.6,4.3,3.9,6.3,5.1c-0.7,0.7-1.9,1.8-1.9,1.8L324.3,80.7
			C324.4,80.6,324.4,80.6,324.3,80.7L324.3,80.7z M304.5,74.9c1,0.1,1.8,0.5,2.5,1.4l0,0c0.2,0.3,0.4,0.6,0.6,0.9
			c0.5,1,0.8,2.3,0.8,3.7c0,0,0,0.1,0,0.1c0,0.6-0.1,1.1-0.1,1.7c0,0.1,0,0.2,0,0.2c-0.3,1.9-1.2,4.1-2.6,6.2
			c-0.3,0-0.6,0.1-0.9,0.1c0,0-0.1,0-0.1,0c-0.7,0.1-1.5,0.1-2.2,0.1l0-0.8h0c1.3-2.2,2.3-5,2.3-7.4c0-0.9-0.1-1.8-0.5-2.5
			c-0.3-0.6-0.7-1-1.1-1.4C303.6,76.7,304.1,75.9,304.5,74.9L304.5,74.9z"/>
		<path d="M301.7,93.2c0.2-0.8,0.4-1.6,0.5-2.4c0,0,0,0,0,0c1,0,2.8-0.1,3.9-0.3c0,0,0.1,0,0.1-0.1c3.7-0.5,7-1.5,10-2.8
			c0.9-0.3,3.9-1.9,5.5-3.1c0,0,0,0,0,0c1.1-0.7,2.1-1.5,3-2.3c0,0,0.1-0.1,0.1-0.1l0.8-0.7l0.1-0.1c3.1-2.8,5.7-5.9,7.7-8.8
			c0.2,0.3,0.4,0.7,0.6,1.1c0.1,0.2,0.1,0.4,0.1,0.6v1.4c0,0-0.1,0.1-0.1,0.1c-8.5,11.8-16.1,18-32.8,18.9
			C301.4,94.2,301.6,93.7,301.7,93.2L301.7,93.2z M159.2,98.6c0.9,0.7,1.7,2.3,2,4.4c0.1,0.8,0.2,1.6,0.2,2.3c0,1.8-0.4,3.3-1,4.3
			c-0.5,0.1-2.6,0.4-3.9,0.6c0.5-1.2,0.8-2.6,0.8-4c0-0.9-0.1-1.7-0.2-2.5c-0.3-2-1-3.4-1.8-4.4C156.6,99.1,158.7,98.7,159.2,98.6
			L159.2,98.6z"/>
	</g>
</g>
</svg>
