<?xml version="1.0" encoding="utf-8"?>
<!-- Generator: Adobe Illustrator 27.6.1, SVG Export Plug-In . SVG Version: 6.00 Build 0)  -->
<svg version="1.1"
	 id="Layer_1" xmlns:dc="http://purl.org/dc/elements/1.1/" xmlns:cc="http://creativecommons.org/ns#" xmlns:rdf="http://www.w3.org/1999/02/22-rdf-syntax-ns#"
	 xmlns="http://www.w3.org/2000/svg" xmlns:xlink="http://www.w3.org/1999/xlink" x="0px" y="0px" viewBox="0 0 181.4 67.6"
	 style="enable-background:new 0 0 181.4 67.6;" xml:space="preserve">
<style type="text/css">
	.st0{fill:#FFFFFF;}
</style>
<g>
	<path class="st0" d="M69.2,39.9c1.1,1.5,2.6,2.4,4.5,2.6c1.8,0.1,3.8-0.8,5.3-1.9c1.1,0.8,2.6,1.5,4.7,1.3c3-0.3,5.9-2.6,9-7
		l1.8-2.8c1.8-2.8,4.5-7.2,6.7-9.3c-0.2,0.4-0.3,0.9-0.7,1.4c-1.8,3-3.5,6.2-3.5,8.9c0,0.6,0.1,1.2,0.3,1.8c0.5,1.3,1.5,2.3,2.9,2.8
		c5.7,1.9,11.8-3,16.4-13.1c0.6-0.2,1.1-0.4,1.7-0.6c-0.6,1.5-1.1,2.8-1.1,4c0,2,0.8,3.6,2,4.7c2.8,2.8,7.8,2.6,11.6-0.1
		c1.6,0.9,3.5,1.5,5.5,1.5c4.3,0.1,8.1-1.9,10.4-5.4c2.3-3.5,2.7-7.9,1.1-11.9c-0.5-1.4-2.2-5.5,0.3-9c1-1.1,0.5-2.5,0.4-2.8
		c-0.2-0.3-0.9-1.5-2.5-1.5h-0.1h-0.1c-5.1,0.5-8,6.5-11,12.8c-0.3,0.7-0.7,1.4-1,2c-0.2,0-0.3-0.1-0.4-0.1c-0.5,0-0.9,0-1.4,0
		c0-0.1,0-0.2-0.1-0.2c-0.1-0.3-0.3-0.5-0.5-0.8c0.4-0.1,0.9-0.2,0.9-0.2c1.4-0.4,1.9-1.8,2.1-2.5c0.1-0.4,0.2-0.8,0.2-1.2
		c0-1-0.2-1.8-0.8-2.7c-0.8-1.2-2.2-2.1-3.8-2.3c-3-0.4-6.2,2.1-7.6,5.5c-1.1,1.2-2.3,2.1-3.5,2.7c-0.3-2.5-1.8-4.2-4-4.6
		c-2.5-0.5-4.9,0.9-5.9,3.1c0,0.1,0,0.2-0.1,0.3c-0.5-0.9-1.2-1.6-2.1-1.9c-6.4-2.6-11.3,5.2-15.6,12c-1.7,2.8-3.4,5.4-4.9,7.1
		c-0.1,0.1-0.2,0.2-0.3,0.3c0-0.5,0.2-1,0.5-1.7c0-0.1,5.9-14,5.9-14l-7.9,1c0,0-0.1,0.2-0.2,0.4c-0.8-0.4-1.5-0.7-2.5-0.8
		c-7.2-0.9-11.7,5.5-13.5,11.9c-0.1,0.3-0.8,1.6-1.3,2.6c-2.3,4.2-4.3,5.4-5.2,5.4c0-0.2-0.1-0.5-0.1-0.8c0-2.2,1.1-6.8,2.3-9.7
		c0.2-0.5,0.2-1,0.2-1.4c0-1-0.5-1.7-0.8-1.9c-0.7-0.6-1.7-1-3-0.4c-1.4,0.8-2.8,1.3-4,1.6c0-0.2,0-0.5,0-0.6c0-0.5,0-1-0.2-1.5
		c-0.8-2-2.3-3.5-4.2-3.8s-3.9,0.5-5.1,2.2c-0.9,1.1-1.2,2.3-1.2,3.7c0,0.8,0.1,1.7,0.5,2.6c0.3,0.8,0.9,1.6,1.5,2.3
		c-0.8,1.5-1.6,3.2-2.4,4.7c-2.5,4.3-4.8,7.5-7.8,10.8c-0.2,0.1-0.2,0.2-0.3,0.4c0.1-0.2,0.1-0.4,0.2-0.7c0.6-2,0.9-4,0.9-5.9
		c0-4.1-1.5-8-4.1-11.2c4-3.2,6.5-7.8,6.5-12.8c0-0.9-0.1-1.9-0.3-2.9c0.6-0.2,1.2-0.4,1.8-0.6c2.2-0.6,2-2.6,2-2.8
		c0-0.2-0.3-2.2-2.8-2.2c-1.2,0-2.3,0.1-3.5,0.2c-2.4-3.2-6.5-5.8-12.8-5.8C18.2,1.2,14.2,4.8,12,7.8c-3,4-4,8.8-3.3,11.3l0.4,1.3
		l1.3,0.5c0.9,0.2,1.7,0.1,2.4-0.5c2-1.6,3.2-2,3.5-2.1h0.3c-3.5,4.6-5.5,10.3-7.5,15.8C7,40,5.1,45.5,1.9,48.4l-1,1l0.2,1.4
		c0.2,1.5,0.5,4.8,0.3,8c0,1.1,0.5,2,1.4,2.5c0.8,0.4,1.9,0.3,2.7-0.2c5.3-4,8.9-14.9,12.1-24.6c1.3-4,2.6-7.8,3.8-10.4
		c-0.1,0.7-0.1,1.4,0,2.1c0.8,2.9,3.1,4.4,5.9,3.8c0,0,0.2-0.1,0.5-0.2c0.8,1.3,1.3,3.2,1.3,5.3c0,1.6-0.3,3.3-0.8,5
		c-0.8,2.1-3.1,7-8.8,6.9c-1.2,0-2.5-0.6-2.8-0.7c-1.5-0.8-2.8-0.2-3.4,0.7c-0.6,1-0.5,2.5,0.7,3.5c0,0,0.1,0.1,0.1,0.1
		c1.2,1.1,4.2,3.8,10,3.6c4.9-0.2,9.4-3.7,11.9-8.8c0,0,0,0.1,0,0.2c0,0.8,0.3,1.3,0.5,1.6c0.7,0.8,2,1.4,3.7,0.4
		c0.9-0.6,2.2-1.4,3.5-2.6c2.3-2.1,4.5-5,7.1-9.2c0.1-0.2,1.5-2.3,2.7-5c0.3,0,0.5,0,0.9,0c-0.7,1.9-1.3,4.1-1.3,6.3
		c0,2.4,0.9,4.6,3.5,5.8C59.7,46,64.6,44.9,69.2,39.9z M22.6,23.6c0,0,0-0.1,0.1-0.1l0.4-0.7c1.6-2.1,3.4-4.5,8.5-7.2
		c0,1.3-0.3,4.1-2.5,6.9l0,0c-0.1,0.1-0.2,0.2-0.3,0.2c-2-1-4.1-0.8-5.7,0.4C22.9,23.4,22.8,23.5,22.6,23.6z M24.1,53.6
		c-5.2,0.2-7.5-2.3-8.5-3.2c-0.2-0.1-0.2-0.2,0.1,0c0.3,0.2,2.1,1,3.9,1c12,0.3,15.2-17.5,9-22.6c-0.2-0.2-1.1,0.7-1.7,0.8
		c-1.8,0.3-2.8-0.7-3.1-1.9c-0.5-1.9,1.5-3.9,4.1-2.5c0.5,0.3,0.4,0.2,0.9,0.5c0.3,0.1,1.5-0.7,2.2-1.5c3-3.7,3.2-7.8,3.1-9.5
		c-0.2-0.9-0.4-1.7-0.7-2.5c-8.5,3.7-10.5,7.1-12.5,9.8c-4.5,6.1-9,31.2-16.7,37c-0.1,0-0.3,0.1-0.3-0.2c0.2-3.2,0-6.7-0.3-8.5
		c6.9-6.4,8.2-21.8,15.3-31c4-5.1,8.9-7.7,13.5-9c-2-2.8-5.2-3.8-7-3.9C17,6,16,12.8,16.1,15.8c-1.1,0.1-2.8,1-4.9,2.7
		c-0.1,0.1-0.2,0-0.2,0c-0.9-3.4,2.8-14.7,13.9-15c5.9,0,9.8,2.5,11.7,5.9c1.7-0.2,3.2-0.3,4.7-0.3c0.6,0,0.3,0.1,0,0.2
		c-1.5,0.5-2.9,0.9-4.1,1.3c2.2,5.7-0.1,13.2-6.9,16.9C40.9,36.8,33.9,53.2,24.1,53.6z M20.1,10.5c0.9-1,2.3-1.6,4.2-1.6
		c0.2,0,0.5,0,0.9,0c0.5,0,1.4,0.2,2.3,0.6c-3.5,1.5-6.5,3.8-9,6.5v-0.3C18.5,15.1,18.4,12.3,20.1,10.5z M108.3,22.8
		c0.2-0.4,0.2-0.7,0.3-1.1c0,0.1,0.1,0.3,0.2,0.4c0.3,0.5,0.8,0.9,1.1,1.2c-1.8,3.2-3.5,5.4-4.5,6c0.3-1.3,1.4-3.5,2-4.8L108.3,22.8
		z M57.6,42.4c-4.8-2.2,0.2-10.8,0.5-13.2c0,0,0-0.1-0.2-0.1c-0.5,0.2-1.8,0.8-2.5,1c-1.2,0.2-2.3,0.1-3.2-0.1
		c-1,2.4-2.3,4.8-3.2,6.2c-2.3,3.8-4.5,6.7-6.7,8.7c-1.2,1-2.2,1.8-3.2,2.4c-0.4,0.2-1,0.4-0.2-0.3c2.9-3,5.3-6.2,8.2-11.2
		c1.1-1.9,2.3-4.4,3.3-6.5c-1.2-0.7-1.9-1.6-2.3-2.6c-1.8-4.5,4-7.3,5.7-2.9c0.2,0.8-0.1,2.3-0.7,4.1c2.5,0.1,5.6-0.8,8.1-2.2
		c0.4-0.2,0.5,0,0.2,0.5c-1.1,2.7-4.1,12.3-1.3,13.7c2.2,1.1,5.5-1,8.5-6.4c0.3-0.5,1.4-2.5,1.5-3.2c1.5-5.3,5.2-10.8,10.9-10.1
		c2,0.2,3.4,1.5,3.8,2.5l0.8-2.2l2.7-0.2l-4.2,10.1c-2,4.2,0.2,8.1,3.8,4.1c5.5-6.2,11.3-21.2,18-18.5c1.3,0.5,2,2.5,0.3,5.9
		c-2,4.4-5.2,9.8-1.8,10.5c2.8,0.7,6.6-5.1,8.8-9.8c-2.9-0.4-3.3-3.9-2.2-6.3c1.1-2.4,5.2-2.7,5.5,0.9c0.1,0.6-0.2,1.8-0.6,3
		c2.6-0.3,6-1.9,8.4-4.7c0.7-2.6,3.2-4.8,5.4-4.6c1.6,0.2,2.8,1.5,2.4,3.1c-0.1,0.6-0.5,1-0.3,0.5c0.2-1.3-1.4-3.6-4.2-1.2
		c-1.1,1-1.9,2.7-1.4,4.3c0.3,1.2,1.9,1.8,3.1,1.4c0.9-0.3,0.3,0.5-0.2,0.7c-1.2,0.5-4.2,2.3-5.5,4.7c-2.6,4.9,1.9,7.8,5.4,5
		c0.2-0.2,0.5-0.5,0.9-0.8c-1.1-1.4-1.5-3.3-0.7-5.3c1.5-3.4,4.8-2.7,5.8-1.8c0.8-1.3,1.5-2.7,2.1-4c2.9-6.2,5.3-11.1,9-11.5
		c0.4,0,0.4,0.1,0.2,0.2c-3.4,4.7-1.2,10-0.6,11.4c2.7,6.8-1.8,14-9.2,13.9c-2.2,0-4.2-0.8-5.6-2c-0.2,0.2-0.5,0.5-0.7,0.7
		c-5.3,4.6-14.1,1-8.6-6.9c0.9-1.1,2.5-2.4,4-3.5c-0.8-0.4-1.2-1.5-1.3-2.4c-1.2,1.2-5.6,4.5-9.2,5.1c-3.2,7.4-8.5,14.7-14,12.9
		c-3.3-1.1-0.6-6.1,1.6-9.8c3.1-5.1,0.5-8.1-2.8-4.7c-3.2,3.2-7.3,10.3-9,12.6c-6.7,9.5-10.3,5.2-11.8,4c-0.8,1-3.3,2.7-5.1,2.7
		c-2.4-0.2-3.7-2.1-4-4.7C65.4,41.8,60.3,43.6,57.6,42.4z M130,16.5c-0.5-0.2-1-0.2-1.7,0c0,0,0,0-0.1,0c0,0,0,0,0-0.1
		c0-0.5,0.3-1.1,0.6-1.4c0.2-0.2,0.2-0.2,0.3-0.2c0.1,0.7,0.4,1.2,0.6,1.5C129.8,16.3,129.9,16.4,130,16.5z M126.5,27.6
		c-0.6,0.2-1.1,0.2-1.3,0c-0.1-0.1-0.2-0.4-0.2-0.7c0-0.4,0.2-0.9,0.5-1.5c0.2-0.4,0.5-0.8,1-1.2c0,0.4-0.2,0.8-0.2,1.1
		C126.1,26.1,126.2,26.8,126.5,27.6z"/>
	<path class="st0" d="M74.5,36.7c2.8,1.2,5.1-1.9,7.1-7.2c1.9-5,0.2-7.2-1.9-7.2C74.9,22.3,70.2,34.8,74.5,36.7z M75.3,31.5
		c0.8-3.7,3.2-6.8,4.4-6.8c0.1,0,0.1,0,0.2,0c0.1,0.1,0.2,0.4,0.2,0.8c0,0.7-0.2,1.6-0.7,3c-1.8,4.9-3.1,5.7-3.5,5.9
		c-0.1,0-0.2,0.1-0.5,0C75.3,34.4,74.9,33.5,75.3,31.5z"/>
	<path class="st0" d="M50.7,23c-1.1,0-2.5,1.3-1.5,3.1c0.4,0.7,1.1,1,1.8,1.4c0.5-1.3,0.9-2.4,0.9-2.8C52,23.5,51.4,23,50.7,23z"/>
	<path class="st0" d="M14.1,52.4C14.1,52.4,14.1,52.4,14.1,52.4C14.1,52.4,14.1,52.3,14.1,52.4z"/>
	<path class="st0" d="M136.3,28.4c2.5-0.3,7.1-1.9,7.4-8.2c0.3-4.2-1.8-6.6-1.6-8.2c-2.3,2-5.3,10.2-10,15.8
		C133.3,28.4,134.8,28.6,136.3,28.4z M140.4,19.2c0.3-0.4,0.5-0.9,0.8-1.3c0.1,0.5,0.2,1,0.2,1.5c0,0.2,0,0.5,0,0.7
		c-0.2,4-2.5,5.3-4.8,5.8C138.1,23.6,139.3,21.3,140.4,19.2z"/>
	<path class="st0" d="M179.4,54c0-0.1,0-0.2,0-0.4c0-0.5,0-1.1-0.2-1.8c-0.4-1.9-1.4-3.2-2.1-4.2l-0.6-0.8l-0.2-0.7
		c-0.1-0.3-0.2-0.6-0.4-1c1.6-1.3,2.2-2.8,2.5-3.8c0.5-2.1-0.1-4.3-1.6-5.8s-3.8-2.2-6.4-2c-0.1-3.4-1.6-5.2-2.5-6.2
		c0-0.2,0-0.4,0-0.4c0-1.9-0.1-5.6-3-8.5c-0.7-0.6-0.7-0.8-1-1.4c0,0-0.3-0.7-0.4-0.9c-0.2-0.4-0.6-1.3-2-2.3l-3.4-2.6l-2.2,3.5
		c-1.2,1.9-1.4,3.8-1.5,5c0,0,0,0.5,0,0.7c-0.1,0.1-0.2,0.3-0.2,0.3l-1,1.2l-0.1,0.1c-1.5,1.9-1.8,3.5-1.8,7.3v0.3
		c-0.1,0.2-0.2,0.3-0.2,0.3c-1.2,1.7-1.3,3.6-1.3,5c0,0-0.1,1.2-0.1,1.2c-3.6,0.5-76,11-77.6,11.2c-4.7,0.6-6.8,4.3-6.5,7.5
		c0.6,5.4,4.4,7,7.8,6.8c2.2-0.2,54.7-8,73.4-10.8c-0.2,0.8-0.2,1.5-0.2,2.3c0,1,0.2,2.1,0.5,3.2c-0.3,0.7-0.5,1.5-0.6,2.3
		c-0.1,0.5-0.1,1-0.1,1.4c0,3,1.3,4.6,2.5,5.5c1.8,1.4,4.3,1.5,7.2,0.5c3,0.5,6.5,0.2,9.5-0.9c2.8,0.6,5.8-1.1,7.2-2l0,0h0.2l2,0
		l0.3,0c1.3-0.2,3.8-0.7,4.9-3.2c0.3-0.7,0.4-1.5,0.4-2.1C180.5,56,179.7,54.6,179.4,54z M178.3,59c-0.8,1.6-2.4,2-3.7,2.2l-0.3,0.1
		l-1.6,0c-0.5,0-0.7,0-0.8,0l-0.4,0.2c-1.5,0.9-4.3,2.6-6.7,1.7c-3,1.2-6.2,1.5-9.2,0.9c-1.5,0.6-4.2,1.5-6.2-0.1
		c-0.8-0.7-1.8-1.9-1.8-4.2c0-0.4,0-0.8,0.1-1.2c0.1-0.8,0.4-1.6,0.8-2.3c-0.5-1.2-0.8-2.3-0.8-3.4c0-1.6,0.5-3.1,0.9-4.4
		c-14.6,2.2-73.6,11-75.8,11.2c-1.6,0.1-5.4-0.1-6-5.2c-0.2-1.9,1-5,5-5.5c0.7-0.1,77.1-11.1,78.8-11.4c0.2-0.2,0.2-0.6,0.4-1.3
		l0.1-1.4c0-1.3,0.1-2.8,1-4l0.3-0.4l0.2-0.3c0,0,0.1-0.2,0.1-1.1c0-3.9,0.3-4.8,1.3-6.2l0.2-0.2l0.9-1c0.5-0.5,0.7-0.7,0.8-1
		l0.2-1.1c0.1-1.2,0.2-2.7,1.2-4.2l1.3-2l1.8,1.5c1,0.8,1.2,1.3,1.3,1.5l0.4,1c0.3,0.8,0.5,1.1,1.3,2c2.4,2.4,2.5,5.5,2.5,7.2
		c0,0,0,0.8,0,1c0.1,0.1,0.3,0.4,0.3,0.4c0.8,1,2.1,2.5,2.1,5.4c0,0.1,0,0.2,0,0.3c0.1,0.2,0.5,0.8,0.5,0.8c0.2,0.1,0.2,0.3,0.4,0.4
		c2.5-0.4,4.7,0.1,6,1.5c1.1,1,1.5,2.6,1.2,4.1c-0.2,0.9-1,2.4-3.1,3.6c0.5,0.9,0.9,1.5,1,2.2l0.4,0.9l0.7,1.1
		c0.7,0.9,1.5,2,1.8,3.5c0.1,0.5,0.2,1,0.2,1.4c0,0.3-0.1,0.6-0.1,0.8c0,0,0,0,0,0.1c0.1,0,0.1,0.2,0.1,0.2l0.1,0.2
		c0.4,0.8,0.9,1.8,0.9,2.9C178.6,58,178.5,58.5,178.3,59z"/>
	<path class="st0" d="M114.1,16c-0.1,0-0.2-0.1-0.3-0.1c-1.5-0.1-2.4,3.2-0.7,3.9c0.3,0.1,0.8,0.2,1.2,0.2
		C115.2,17.6,115.2,16.4,114.1,16z"/>
	<path class="st0" d="M130.8,27.1c0.9-1.1,1.8-2.4,2.7-3.8c-0.3-0.6-1-1.2-1.8-1.2c-0.6,0-1.2,0.4-1.8,1.5
		C129.3,24.9,129.7,26.2,130.8,27.1z"/>
	<path class="st0" d="M175.6,54.1c0-0.4,0-1,0-1.6c-0.2-1.1-0.9-2-1.5-2.8l-0.9-1.2l-0.5-1.1c-0.2-0.8-0.5-1.5-1.4-2.4
		c-0.1-0.1-0.2-0.1-0.2-0.2l-0.8-1c2.5-0.7,4-1.9,4.4-3.3c0.2-0.8,0-1.7-0.6-2.2c-0.9-0.8-2.8-1.5-5.7-0.7c0,0,0,0,0,0
		c-0.2-0.5-0.5-1-0.9-1.5c0,0-0.1-0.1-0.1-0.1c-0.2-0.3-0.4-0.7-0.6-1c-0.1-0.2-0.2-0.4-0.2-0.6c0.2-2.6-0.9-3.8-1.6-4.7
		c-0.4-0.4-0.7-0.8-0.8-1.1c-0.1-0.4-0.1-1-0.1-1.6c0-1.7,0-4-1.8-5.9c-1.2-1.1-1.5-1.8-1.8-2.7l-0.4-0.8c-0.1-0.3-0.6-0.7-0.8-0.8
		l-0.3-0.2l-0.2,0.3c-0.8,1.2-0.8,2.2-0.9,3.2l-0.2,1.4c-0.2,0.9-0.8,1.4-1.2,1.9l-0.8,0.8l-0.2,0.2c-0.6,0.9-1,1.4-1,5
		c0,1.7-0.2,2-0.8,2.6l-0.3,0.3c-0.5,0.7-0.5,1.7-0.5,2.8l-0.1,1.7c0,0.2,0,0.4-0.1,0.6l-0.2,0.8c-0.2,0.7-0.5,1.1-0.8,1.4
		c0,0,0,0-0.1,0c-0.2,0-2.3,0.3-5.8,0.8l-0.6,0c-2.2,0.3-4.8,0.7-7.8,1.1l-1.6,0.2c-16.6,2.4-42.2,6.1-55.3,8c0,0,0,0-0.1,0
		l-1.7,0.3l-6.7,1c-2.7,0.3-3.5,2.2-3.3,3.4c0.1,1,0.4,3.8,4,3.5c0.3,0,2.5-0.3,5.8-0.8h0l1.8-0.2c11.5-1.7,33.3-4.9,50-7.4h0.1
		l0.9-0.1c6.8-1,12.6-1.9,16.3-2.5c0,0,0,0,0.1,0l2.5-0.4c0.4,0,0.8-0.1,1-0.1c-0.1,0.8-0.4,1.8-0.7,2.7c-0.4,1.2-0.9,2.6-0.9,4.1
		c0,1.1,0.3,2.2,1,3.3c0,0.1-0.1,0.2-0.1,0.2c-0.6,1.1-0.9,1.7-1,2.5c0,0.4,0,0.7,0,1c0,1.2,0.4,2.1,1,2.6c1,0.8,2.7,0.7,4.9-0.3
		c3,0.8,6.6,0.4,9.6-1c1.6,1.1,4.2-0.5,5.5-1.3l0.4-0.2c0.7-0.4,1.3-0.4,1.9-0.3h1.1l0.3-0.1c1-0.2,2-0.3,2.3-1.1
		c0.2-0.5,0.1-1.3-0.5-2.5C175.6,55,175.6,54.7,175.6,54.1z M170.6,45.1c-2.1,0.7-5.1,0.8-7.6,0.3c0,0,0.1-0.1,0.2-0.2
		c0.1-0.1,0.2-0.2,0.3-0.2c0.3-0.2,0.6-0.5,0.8-0.8c1.4,0.3,4,0.1,5.4-0.4C169.9,44.3,170.2,44.7,170.6,45.1z M164.9,43.7
		c0.1-0.1,0.2-0.2,0.3-0.3c0.2,0.2,0.5,0.2,0.8,0.4C165.6,43.7,165.2,43.7,164.9,43.7z M168.6,38.2
		C168.6,38.2,168.6,38.2,168.6,38.2L168.6,38.2c0-0.1,0-0.1,0-0.2c2.6-0.7,4.3-0.2,5,0.5c0.3,0.3,0.5,0.7,0.5,1.1c0,0.2,0,0.2,0,0.4
		c-0.3,1.2-1.9,2.2-4.2,2.9c-0.2-0.2-0.4-0.7-0.5-1c0-0.2-0.1-0.3-0.2-0.5c0,0,0,0,0,0c-0.1-0.4-0.2-0.8-0.3-1
		c-0.1-0.4-0.2-0.8-0.2-1.2c0-0.3,0-0.6,0-0.8c0,0,0-0.1,0-0.2V38.2z M168.6,42c0.1,0.2,0.2,0.4,0.2,0.6c0.1,0.2,0.2,0.3,0.2,0.5
		c0,0,0,0,0,0c0,0,0,0,0,0c-1,0.2-2.3,0.2-3.5-0.4c0.2,0,0.2-0.1,0.3-0.2c0.1,0,0.1-0.1,0.1-0.2c0.2-0.3,0.5-0.6,0.7-0.8
		C167.3,41.8,167.9,42,168.6,42z M168.2,40.5c0.1,0.2,0.1,0.5,0.2,0.7c-0.5,0-0.8-0.1-1.2-0.2c0.3-0.3,0.6-0.7,0.9-1.1
		C168.1,40.1,168.1,40.3,168.2,40.5z M167.6,37.3c0.1,0.2,0.2,0.3,0.3,0.5c0,0.1,0,0.2,0,0.3v0.7l0,0c-4.2,5.9-8.1,9-16.4,9.5
		c0.1-0.2,0.2-0.5,0.2-0.7c0.1-0.4,0.2-0.8,0.2-1.2c0.5,0,1.4-0.1,2-0.2c0,0,0,0,0,0c1.8-0.2,3.5-0.8,5-1.4c0.5-0.1,2-1,2.8-1.5
		c0.5-0.3,1-0.8,1.5-1.2l0,0l0.4-0.3l0,0C165.3,40.3,166.6,38.8,167.6,37.3z M163.1,41.4c-1-0.6-2.7-2-4.1-3.3
		c0.4,0,0.7-0.1,1.1-0.2c0.3,0,0.6-0.1,1-0.1c0.7,0.8,2.1,2,3.1,2.5c-0.3,0.3-1,0.9-1,0.9L163.1,41.4z M162.5,41.9
		c-0.3,0.2-0.6,0.5-1,0.8l-0.8-0.3c-1.4-0.5-3.3-1.1-4.9-1.3c0-0.7-0.2-1.2-0.5-1.7c0-0.1-0.1-0.2-0.2-0.3c1-0.3,2-0.6,3.1-0.8
		C159.5,39.6,161.4,41.1,162.5,41.9z M158.9,44.2c-0.5-0.1-1-0.3-1.5-0.5c-0.5-0.2-1.1-0.4-1.8-0.5c0.1-0.5,0.1-1,0.1-1.4
		c1.5,0.2,3.3,0.8,4.7,1.3l0.3,0.1C160.2,43.5,159.6,43.9,158.9,44.2z M155.4,43.8c0.6,0.1,1.2,0.3,1.8,0.5c0.2,0.1,0.5,0.2,0.7,0.3
		c-1,0.4-2.1,0.7-3.2,0.9C155,44.9,155.3,44.3,155.4,43.8z M164.7,39.8c-0.8-0.4-2-1.4-2.9-2.2c0.3,0,0.5-0.1,0.9-0.1l4.5-0.8
		C166.5,37.7,165.7,38.8,164.7,39.8z M153.7,35c0-1,0-1.9,0.4-2.4l0.2-0.3c0.6-0.8,0.9-1.2,0.9-3c0-3.6,0.2-3.9,0.8-4.5l0.1-0.2
		l0.7-0.7c0.5-0.5,1.2-1.2,1.5-2.2l0.2-1.5c0.1-0.8,0.2-1.8,0.7-2.6c0.1,0.1,0.2,0.2,0.2,0.3l0.3,0.8c0.4,0.8,0.7,1.7,1.9,3
		c1.6,1.6,1.6,3.7,1.6,5.4c0,0.7,0,1.3,0.2,1.8c0.1,0.5,0.5,1,0.9,1.4c0.7,0.8,1.5,1.7,1.5,3.7c0,0.1,0,0.3,0,0.5c0,0,0,0,0,0.1
		l-3.1,0.5c0.8-1.9,0.2-4.3-0.5-5.9c-0.1-0.2-0.3-0.2-0.5-0.2c-0.2,0.1-0.2,0.3-0.2,0.5c0.8,1.5,1.4,4,0.4,5.7l-0.5,0.1
		c-2.7,0.4-5.4,0.8-7.8,1.6L153.7,35z M153.5,37.3c2.4-0.9,5.2-1.2,8-1.7c0,0,0.3,0,0.8-0.1c1.2-0.2,3.5-0.6,3.8-0.7l0,0
		c0.2,0.4,0.4,0.8,0.7,1.2l-4.2,0.7c-0.8,0.1-1.6,0.2-2.4,0.4c-1.2,0.2-1.8,0.3-2,0.4c-1.2,0.2-2.4,0.5-3.5,1
		c-0.4-0.4-0.8-0.6-1.3-0.7C153.5,37.6,153.5,37.5,153.5,37.3z M153.2,38.5c0.5,0,0.9,0.2,1.2,0.7c0.1,0.1,0.2,0.3,0.3,0.4
		c0.2,0.5,0.4,1.2,0.4,1.9v0c0,0.3,0,0.5,0,0.8c0,0.1,0,0.1,0,0.1c-0.2,1-0.6,2-1.3,3.1c-0.2,0-0.3,0-0.5,0h0
		c-0.4,0.1-0.8,0.1-1.1,0.1v-0.4c0.7-1.1,1.2-2.5,1.2-3.7c0-0.5-0.1-0.9-0.2-1.2c-0.2-0.3-0.4-0.5-0.6-0.7
		C152.7,39.4,153,39,153.2,38.5z M144.8,41.2c-0.7,0.9-1.8,2.6-2,3c-0.4-0.3-1.8-1.6-2.5-2.3L144.8,41.2z M78.4,56.3
		c-3.2,0.5-5.3,0.8-5.6,0.8c-2.6,0.2-3.1-1.4-3.2-2.8c0-0.1,0-0.1,0-0.2c0-0.7,0.5-2.2,2.8-2.5l5.5-0.8c0.5,0.3,0.9,1.2,1,2.2
		C79,54.3,78.9,55.6,78.4,56.3z M81.1,55.9c-0.2,0-1.3,0.2-2,0.3c0.2-0.6,0.4-1.3,0.4-2c0-0.4,0-0.8-0.1-1.2c-0.2-1-0.5-1.7-0.9-2.2
		c0.7-0.1,1.7-0.3,2-0.4c0.4,0.4,0.8,1.2,1,2.2c0,0.4,0.1,0.8,0.1,1.2C81.6,54.6,81.4,55.4,81.1,55.9z M82,55.8
		c0.4-1,0.4-2.3,0.2-3.3c-0.2-0.9-0.5-1.7-0.8-2.2l45.6-6.6c0.3,1.4,0.6,3,0.6,5.3C112.2,51.3,93.1,54.1,82,55.8z M130.1,48.6
		c-0.4,0-1.4,0.2-1.9,0.2c0-0.1,0-0.2,0-0.3c0-2-0.2-3.5-0.6-4.9c0.5,0,1.5-0.2,1.9-0.3c0.3,1.3,0.6,2.7,0.6,4.5V48.6z M130.2,43.3
		l3-0.5l-2.5,3.5C130.6,45.1,130.4,44.2,130.2,43.3z M131.4,48.5c-0.1,0-0.3,0-0.5,0.1c0-0.3,0-0.7,0-0.9v-0.3
		c0.1-0.2,3.1-4.4,3.3-4.6c0.2,0,0.4-0.1,0.7-0.1c0.1,0.4,0.3,1.5,0.3,1.8c-0.2,0.2-2.6,3.7-2.8,4C132.3,48.4,131.8,48.4,131.4,48.5
		z M135.4,47.9c-0.7,0.1-1.4,0.2-2.1,0.3l2-2.8C135.4,46.1,135.5,47,135.4,47.9z M138,47.5c-0.4,0-1.4,0.2-1.9,0.3
		c0-0.1,0-0.2,0-0.4c0-1.1-0.1-2-0.2-2.9c0-0.2,0-0.4-0.1-0.7c0-0.2,0-0.3-0.1-0.5c0-0.3-0.1-0.5-0.1-0.8c0.1,0,0.4,0,0.6-0.1
		l1.2-0.2l0.4,1.5c0.1,1,0.3,2,0.3,3.2C138,47.2,138,47.3,138,47.5z M138.7,47.4c0-0.9,0-1.8-0.1-2.5l2.3,2.2
		C140.1,47.2,139.4,47.3,138.7,47.4z M141.7,46.9c-0.2-0.2-3.1-2.9-3.3-3.1c-0.1-0.5-0.2-1.1-0.3-1.7c0.4,0,1-0.1,1.2-0.2l3.2,3
		c0.1,0,0.2,0.1,0.2,0.1c0.1,0,0.2-0.1,0.2-0.2c0,0,2.5-3.6,2.6-3.8h0.5c0.2-0.1,0.5-0.1,0.7-0.1c0,0.2,0.1,0.7,0.2,1
		c0,0.1,0,0.2,0,0.4c-0.2,0.3-3.1,4.1-3.2,4.3C143.6,46.7,142,46.9,141.7,46.9z M144.8,46.5l2.4-3.2c0.1,0.8,0.2,1.8,0.2,2.8
		C146.6,46.2,145.7,46.3,144.8,46.5z M150,45.7c-0.5,0-1.1,0.1-1.9,0.2c0-0.1,0-0.2,0-0.3c0-1.3-0.2-2.4-0.3-3.3c0,0,0,0,0-0.1
		c-0.2-0.8-0.2-1.2-0.4-1.5c0.5,0,1.5-0.2,1.9-0.2c0.3,1.5,0.6,2.8,0.6,4.8C150,45.5,150,45.6,150,45.7z M151.2,45.5
		c-0.1,0-0.3,0-0.5,0.1c0-2.1-0.2-3.6-0.6-5.2l1.5-0.2l0,0c0.4,0,0.6,0.1,0.8,0.5C152.9,41.8,152.3,44.1,151.2,45.5z M176.1,57.9
		c-0.2,0.4-1,0.6-1.8,0.8l-0.4,0H173c-0.7,0-1.5-0.1-2.3,0.4l-0.3,0.2c-1.2,0.8-3.8,2.3-5,1.2l-0.2-0.2l-0.2,0.1
		c-1.1,0.5-5.1,2.2-9.4,1l-0.1,0l-0.1,0c-2,0.9-3.5,1.1-4.3,0.5c-0.7-0.5-0.9-1.5-0.7-3c0-0.7,0.3-1.2,0.9-2.2l0.3-0.8l-0.2-0.1
		c-1.6-2.5-0.8-4.8-0.1-7c4.8-0.2,8.1-1.2,10.8-3.1c2.9,0.7,6.6,0.6,9-0.2c0.5,0.6,0.8,1.2,1,1.8l0.5,1.3l0.9,1.3
		c0.6,0.8,1.2,1.6,1.4,2.5c0.1,0.3,0.1,0.6,0.1,0.8c0,0.2,0,0.4,0,0.6c0,0.2-0.1,0.3-0.1,0.5c0,0.5,0.1,1,0.7,1.5
		c0.3,0.6,0.5,1.2,0.5,1.5C176.1,57.7,176.1,57.8,176.1,57.9z"/>
	<path class="st0" d="M161.9,26.6c0-0.2,0-0.4-0.2-0.5c-0.5-0.1-0.9-0.6-1.2-1.3c-0.4-0.9-0.4-1.9-0.1-2.7c0.1-0.1,0-0.3-0.1-0.4
		c-0.2-0.1-0.3,0-0.5,0.1c-0.4,0.9-0.4,2.2,0,3.2c0.3,0.9,1,1.5,1.6,1.8C161.7,26.9,161.9,26.8,161.9,26.6z"/>
	<path class="st0" d="M155.8,31.8c-0.2,1.1,0.1,2.1,0.8,3c0.2,0.1,0.4,0.1,0.5,0c0.1-0.2,0.2-0.4,0-0.5c-0.5-0.7-0.8-1.5-0.6-2.4
		c0.2-0.9,0.8-1.7,1.5-2c0.1,0,0.2-0.2,0.1-0.5c-0.1-0.2-0.3-0.2-0.4-0.2C156.8,29.7,156,30.7,155.8,31.8z"/>
	<path class="st0" d="M153.8,53.9c-0.2-0.7,0.2-1.1,1-1.6l0.8-0.7c0.6-0.7,0.8-1.7,0.1-2.3c-0.2-0.2-0.4-0.2-0.5-0.1
		c-0.2,0.2-0.2,0.4,0,0.5c0.5,0.5,0,1.2-0.2,1.4l-0.8,0.6c-0.7,0.6-1.6,1.2-1.2,2.4c0,0.2,0.2,0.3,0.4,0.2S153.9,54.1,153.8,53.9z"
		/>
	<path class="st0" d="M173,54.3c-0.3-0.1-0.5,0-0.5,0.2c-0.1,0.4-0.2,0.5-0.4,0.6h-0.7l-0.8,0c-0.5,0-0.9,0.2-1.3,0.5l-1.2,1
		l-0.2,0.1c-0.5,0.1-1,0-1.5-0.1c-0.2,0-0.3,0-0.4,0.2c-0.1,0.2,0,0.4,0.2,0.4c0.7,0.2,1.2,0.3,1.9,0.2l0.5-0.2l1.2-1
		c0.2-0.2,0.6-0.4,1-0.4l0.6,0h1c0.7-0.2,0.8-0.9,0.9-1.1C173.3,54.5,173.2,54.3,173,54.3z"/>
	<path class="st0" d="M170,49.1c1.1,0.9,2.2,1.9,1.8,3.7c-0.1,0.2,0,0.4,0.2,0.5c0.1,0,0.3-0.1,0.4-0.2c0.7-2.2-0.9-3.5-2-4.4
		c-0.6-0.5-1.1-1-1.1-1.4c0-0.2-0.1-0.3-0.3-0.3c-0.2,0-0.3,0.2-0.3,0.3C168.5,47.9,169.2,48.5,170,49.1z"/>
	<path class="st0" d="M160.1,57.6l-0.3,0.1c-0.2,0-0.4,0-0.7-0.1c-0.3-0.1-0.7-0.2-1.1-0.1l-1,0.5l-1,0.4c-0.8,0.2-1.6-0.3-1.9-1.1
		c-0.1-0.2-0.3-0.2-0.4-0.2c-0.2,0-0.2,0.3-0.2,0.5c0.4,1.2,1.6,1.8,2.7,1.5l1.1-0.5l0.9-0.4c0.2,0,0.4,0,0.7,0.1
		c0.3,0.1,0.7,0.2,1.1,0.1h0l0.5-0.3c-0.1,0,0.4-0.2,0-0.5C160.5,57.4,160.1,57.6,160.1,57.6z"/>
	<path class="st0" d="M163.5,53.6c-0.5-0.5-0.6-0.8-0.5-1.2c0.7-1.5,0.6-3-0.1-4.2c-0.1-0.1-0.3-0.2-0.5-0.1
		c-0.2,0.1-0.2,0.3-0.1,0.5c0.6,1,0.7,2.2,0.1,3.5c-0.4,0.9,0.3,1.6,0.6,2c0.2,0.1,0.4,0.1,0.5,0.1c0.2,0,0.2-0.1,0.2-0.3
		C163.7,53.7,163.5,53.6,163.5,53.6z"/>
</g>
</svg>
