<?xml version="1.0" encoding="utf-8"?>
<!-- Generator: Adobe Illustrator 27.6.1, SVG Export Plug-In . SVG Version: 6.00 Build 0)  -->
<svg version="1.1" id="Layer_1" xmlns="http://www.w3.org/2000/svg" xmlns:xlink="http://www.w3.org/1999/xlink" x="0px" y="0px"
	 viewBox="0 0 496.1 89.8" style="enable-background:new 0 0 496.1 89.8;" xml:space="preserve">
<style type="text/css">
	.st0{fill:#FFFFFF;}
</style>
<g>
	<path class="st0" d="M57.5,83.6l9.9-62.5l2.7-16.6h20.6c6.8,0,12,6,10.9,12.7L91,83.6H57.5z"/>
	<path class="st0" d="M15.3,21C17,11.1,23.2,4.6,38.5,4.6h27.7l-2.7,16.6H51.9c-2.9,0-3.4,1.3-3.7,3.3l-0.3,2h11.8l-3.2,19.4H44.8
		l-6.1,37.7H5.4l6-37.7H0l3.1-19.4h11.4L15.3,21z"/>
	<path class="st0" d="M157.2,62.3c-0.5,1.3-2.6,6.3-13.7,6.3c-10.4,0-12.9-5.2-12.9-9.9H191c0.3-1.2,0.7-4.7,0.7-8
		c0-12.2-6.5-25.8-42-25.8h-5c-38,0-44.6,16.1-46.3,27.6c-0.3,2.2-0.4,3.8-0.4,5.6c0,12.3,6.6,27.1,42.4,27.1h5
		c39.5,0,43.8-15.1,45-23L157.2,62.3L157.2,62.3L157.2,62.3z M146.8,39.7c9.3,0,12.1,3.1,12.5,7.3h-26.7
		C133.9,43.1,137.2,39.7,146.8,39.7L146.8,39.7z"/>
	<path class="st0" d="M243.8,58.5h32.7l1.2-7.3c1.7-10.7-0.5-26-21.3-26h-1.2c-14.1,0-22.2,8.8-24.8,12.2l1.8-10.9h-33.4l-9.1,57.2
		h33.5l4.4-27.8c1.2-7.3,4.5-11,9.9-11c6,0,7.8,4.4,6.9,9.8L243.8,58.5L243.8,58.5z"/>
	<polygon class="st0" points="284.2,26.4 275.2,83.6 308.7,83.6 317.8,26.4 	"/>
	<path class="st0" d="M400.4,62.8c0-9.8-6.3-15.8-28.4-16.7l-12.7-0.5c-6-0.3-7.8-1.5-7.8-3.6c0-1.7,1-3.5,8.3-3.5h0.2
		c7.9,0,8.6,2.9,8.6,4.7h32.9c0.9-10-4-18.3-36.4-18.3h-6.9c-28.2,0-37.2,5.1-39.7,13.8c-0.4,1.5-0.6,3.1-0.6,4.7
		c0,8.5,5.8,16.9,25.9,17.7l13.1,0.6c6.7,0.3,8,1.9,8,4.1c0,2.2-1.3,4.4-8.9,4.4h-0.2c-7.2,0-8.2-3.5-8.2-6.1h-33.9
		c-0.9,8.1,2.1,21,36.9,21h7.1c34.2,0,40.1-7.9,42.2-17.2C400.2,66.2,400.4,64.5,400.4,62.8L400.4,62.8L400.4,62.8z"/>
	<path class="st0" d="M471.5,25.2h-0.6c-17.6,0-28.2,9.7-30.3,11.8l5.2-32.4h-33.5l-12.6,79.1h33.5l4.2-26.1
		c1.2-6.8,5.2-12.1,13.6-12.1c8.4,0,11.3,5.1,10.1,11.9l-4.2,26.4h33.7l5.5-35.4C497.5,38.9,493.3,25.2,471.5,25.2"/>
	<polygon class="st0" points="321.3,4.6 287.8,4.6 284.9,22.5 318.4,22.5 	"/>
</g>
</svg>
