<?xml version="1.0" encoding="utf-8"?>
<!-- Generator: Adobe Illustrator 27.6.1, SVG Export Plug-In . SVG Version: 6.00 Build 0)  -->
<svg version="1.1" id="Layer_1" xmlns="http://www.w3.org/2000/svg" xmlns:xlink="http://www.w3.org/1999/xlink" x="0px" y="0px"
	 viewBox="0 0 526 184" style="enable-background:new 0 0 526 184;" xml:space="preserve">
<style type="text/css">
	.st0{fill:#FECC30;}
	.st1{fill:#FFFFFF;}
</style>
<g>
	<g>
		<path class="st0" d="M267.7,131.5c-18.9,2.5-36.9,2.1-52.6-0.6c9.6,0.2,19.7-0.4,30-1.7c58.4-7.6,102.5-37.9,98.7-67.7
			c-1.8-13.7-13.5-25-31.3-32.3c27.6,6,46.9,19.4,49.2,37.2C365.5,95.1,323.4,124.2,267.7,131.5z"/>
		<path class="st0" d="M288.7,15.4C313.5,8.9,337.2,4.8,358,3.1c-12.7,2.2-25.9,5.1-39.5,8.6c-76.7,20.1-134.2,54.5-128.3,76.7
			c2.7,10.3,18.4,16.2,42,17.6c-36.4,2.1-62.2-3.7-65.7-17C160.8,67.5,215.5,34.6,288.7,15.4z"/>
		<path class="st0" d="M309.3,54.4c-13.5-19.9-40.6-25.1-60.5-11.5c-19.9,13.5-25.1,40.6-11.5,60.5c13.5,19.9,40.6,25.1,60.5,11.5
			C317.6,101.4,322.8,74.3,309.3,54.4z M289.6,112.1c-15.7,10.7-37.2,6.6-47.9-9.1c-10.7-15.7-6.6-37.2,9.1-47.9
			c15.7-10.7,37.2-6.6,47.9,9.1C309.4,79.9,305.4,101.4,289.6,112.1z"/>
		<path class="st1" d="M287.3,72.6C280.8,63,267.6,60.5,258,67c-0.3,0.2-0.6,0.4-0.9,0.6c-0.1,0.1-0.2,0.2-0.3,0.3
			c-0.2,0.1-0.3,0.3-0.5,0.4c-0.1,0.1-0.3,0.3-0.4,0.4c-0.1,0.1-0.2,0.2-0.4,0.3c-0.2,0.2-0.3,0.3-0.5,0.5c-0.1,0.1-0.2,0.2-0.3,0.3
			c-0.2,0.2-0.3,0.4-0.5,0.5c-0.1,0.1-0.1,0.1-0.2,0.2c-0.2,0.2-0.3,0.4-0.5,0.6c0,0.1-0.1,0.1-0.1,0.2c-0.2,0.2-0.4,0.5-0.5,0.7
			c0,0-0.1,0.1-0.1,0.1c-0.2,0.2-0.3,0.5-0.5,0.7c0,0,0,0.1-0.1,0.1c-0.2,0.3-0.3,0.5-0.5,0.8c0,0,0,0,0,0.1
			c-0.2,0.3-0.3,0.6-0.5,0.9c0,0,0,0,0,0c-0.9,1.8-1.6,3.7-2,5.7c0.2-0.2,0.4-0.3,0.6-0.4c7.8-5.3,18.4-3.3,23.7,4.5
			c4.5,6.6,3.7,15.3-1.4,21c0,0,0,0,0,0c0.3,0,0.5-0.1,0.8-0.1c0.1,0,0.2,0,0.3,0c0.3,0,0.5-0.1,0.8-0.1c0.1,0,0.2,0,0.2-0.1
			c0.2,0,0.4-0.1,0.6-0.1c0.1,0,0.2,0,0.3-0.1c0.3-0.1,0.5-0.1,0.8-0.2c0.1,0,0.2-0.1,0.3-0.1c0.2-0.1,0.5-0.2,0.7-0.2
			c0,0,0.1,0,0.1,0c0.3-0.1,0.5-0.2,0.8-0.3c0.1,0,0.2-0.1,0.2-0.1c0.3-0.1,0.5-0.2,0.8-0.4c0,0,0.1,0,0.1-0.1
			c0.2-0.1,0.5-0.2,0.7-0.4c0.1,0,0.1-0.1,0.2-0.1c0.3-0.1,0.5-0.3,0.8-0.5c0.1,0,0.1-0.1,0.2-0.1c0.3-0.2,0.5-0.3,0.8-0.5
			C291.4,95.4,293.9,82.2,287.3,72.6z"/>
	</g>
</g>
<g>
	<path class="st1" d="M87.3,141.7l-24,36.9H44l10.1-16H32.6l-10.1,16H3.4l21.5-33.8l-7.4-3.1h28.6L36,157.3h21.5l10.2-15.6H87.3z"/>
	<path class="st1" d="M136.9,147.9l-33.1,20.5l-6.6,10.2H81.3l6.6-10.2l-5.8-17.9l-6.4-2.5h21.9l3.1,14.1h0.2l20.9-14.1H136.9z"/>
	<path class="st1" d="M177.1,155.4l-2.5,4.1c-3.1,4.8-12.7,7.5-28.7,7.5h-7.7l-7.5,11.6h-16l18.3-28.1l-6.4-2.6h8.3h-0.2h0.2h23.5
		C174.3,147.9,180.5,150.5,177.1,155.4z M155.5,152.2H148l-7,10.3h7.7c5.2,0,8.3-0.6,9.8-2.8l2.8-4.7
		C162.9,152.7,160.6,152.2,155.5,152.2z"/>
	<path class="st1" d="M197.5,152.2l-5.3,8.7h21.8l-2.8,4.4h-21.8l-5.9,9h27.4l-2.8,4.4h-43.3l18.2-28.2l-6.4-2.6H228l-2.8,4.4H197.5
		z"/>
	<path class="st1" d="M276.6,154.8l-1.6,2.6c-2.1,3-6.6,5.2-14.7,6.1c7.5,1.1,8.6,3.4,6.4,6.5l-3.1,4.9l-2,3.6h-16.3l2.3-3.6
		l3.2-4.9c2-2.9-0.5-3.9-7.7-3.9h-5.7l-8,12.4h-16l18-28.2l-6.1-2.5h32C274,147.8,279.6,150.2,276.6,154.8z M254.1,152.2h-7.7
		l-6.3,9.3h6.3c6.2,0,10.4-0.7,11.8-3l1.8-3.2C261.6,153,259.8,152.2,254.1,152.2z"/>
	<path class="st1" d="M303.4,147l-7.1,11h24.5l-3.4,5.2H293l-9.8,15.3h-19l21.5-33.7l-7.4-3.1h59.8l-3.4,5.2H303.4z"/>
	<path class="st1" d="M373.5,155.1l-10.3,16.3c-3.1,4.8-13.8,7.6-29.5,7.6c-15.5,0-22.4-2.8-19-7.6l10.3-16.3
		c1.3-2.1,3.8-3.6,7.6-4.8l6-0.5l12.7-1.2c0.6,0,1.1,0,1.6,0l0,0l0,0c0.5,0.9,1-0.5,1.4-0.5C370,147.9,376.7,150.3,373.5,155.1z
		 M351.3,151.8c-4.8,0-8.8,1-10.1,3.1l-10.8,16.8c-1.5,2.3,1.3,3.1,6.3,3.1c5.2,0,9-0.8,10.3-3.1l10.9-16.8
		C359.1,152.8,356.5,151.8,351.3,151.8z"/>
	<path class="st1" d="M424.2,155.3l-1.8,2.8H407l2.2-3.1c1.5-2.3-1.3-3-6.3-3c-5.2,0-8.7,0.7-10.3,3l-10.9,16.7
		c-1.3,2.4,1.3,3.1,6.5,3.1c5.2,0,8.8-0.7,10.4-3.1l2.8-4.4h15.1l-2.6,4.1c-3.1,4.9-13.2,7.9-29.1,7.9c-15.8,0-22-3-19-7.9
		l10.4-16.1c1.3-2,4-3.8,7.5-5.2l-5.9-2.4l27.5-0.2C421.1,147.6,427.4,150.4,424.2,155.3z"/>
	<path class="st1" d="M478.6,147.9L463.7,171c-3.1,4.8-12.9,7.6-28.5,7.6c-15.5,0-21.6-2.8-18.5-7.6l13.2-20.5l-6.1-2.5h23.6
		l-15.2,23.3c-1.3,2.3,1.2,3.1,6.3,3.1c5.1,0,8.6-0.8,10.2-3.1l15-23.3H478.6z"/>
	<path class="st1" d="M523.3,155.1l-0.6,1h-15l0.7-1.2c1.6-2.1-0.7-3.1-5.9-3.1c-5.1,0-8.5,1-9.9,3.1c-1.3,2.3,0.6,3.7,9.4,6.6
		c11,3.6,13.5,6.2,11.3,9.8c-3.3,4.8-13.1,7.7-28.8,7.7c-15.6,0-22-2.9-18.8-7.7l1.3-2H482l-1.3,2.3c-1.5,2,1.3,3.1,6.2,3.1
		c5.2,0,8.7-1,10.2-3.1c1.5-2.3-0.7-3.9-9.2-6.6c-11-3.7-13.6-6.3-11.3-9.8c1.3-2,3.6-3.6,7.2-4.9l-5.6-2.2l23.9-0.6
		c0.5,0,1.3,0,2.8,0C520.4,147.4,526.6,150.1,523.3,155.1z"/>
</g>
<g>
	<path class="st1" d="M314.7,171.4l10.3-16.2c3.1-4.8,13.8-7.6,29.5-7.6c15.5,0,22.4,2.8,19,7.6l-12.2,14.3c-1.3,2.1-1.9,4-5.7,5.3
		l-3.9,1l-14.7,3.4c-0.6,0-1,0-1.5,0h-0.6h0.2c-0.4,0-0.7,0-1.1,0C318.3,179.1,311.6,176.2,314.7,171.4z M336.9,174.7
		c4.8,0,8.8-1,10.1-3.1l10.8-16.7c1.5-2.3-1.4-3.1-6.3-3.1c-5.2,0-9,0.8-10.3,3.1l-10.9,16.7C329.1,173.7,331.8,174.7,336.9,174.7z"
		/>
</g>
</svg>
