<?xml version="1.0" encoding="utf-8"?>
<!-- Generator: Adobe Illustrator 27.6.1, SVG Export Plug-In . SVG Version: 6.00 Build 0)  -->
<svg version="1.1" id="Layer_1" xmlns="http://www.w3.org/2000/svg" xmlns:xlink="http://www.w3.org/1999/xlink" x="0px" y="0px"
	 viewBox="0 0 360 216" enable-background="new 0 0 360 216" xml:space="preserve">
<g>
	<g>
		<path fill="#FFFFFF" d="M185.979,209.408c-30.203,3.932-59.02,3.317-84.155-0.999c15.391,0.288,31.519-0.578,48.048-2.729
			c93.402-12.161,164.095-60.638,157.893-108.276c-2.861-21.975-21.595-39.929-50.107-51.706
			c44.1,9.529,74.997,31.037,78.699,59.475C342.341,151.149,275.015,197.816,185.979,209.408z"/>
		<path fill="#FFFFFF" d="M219.454,23.638c39.692-10.404,77.669-16.927,110.886-19.67c-20.284,3.515-41.508,8.107-63.227,13.801
			C144.365,49.942,52.429,104.903,61.766,140.524c4.307,16.434,29.424,25.875,67.273,28.127
			c-58.327,3.288-99.555-5.969-105.127-27.234C14.901,107.038,102.448,54.307,219.454,23.638z"/>
		<path fill="#FFFFFF" d="M252.468,86.011c-21.637-31.837-64.986-40.105-96.822-18.468c-31.837,21.638-40.104,64.985-18.468,96.822
			c21.638,31.837,64.986,40.104,96.823,18.468C265.837,161.196,274.106,117.847,252.468,86.011z M221,178.317
			c-25.179,17.113-59.466,10.574-76.582-14.607c-17.114-25.181-10.574-59.468,14.608-76.582
			c25.181-17.114,59.466-10.575,76.58,14.607C252.723,126.916,246.183,161.203,221,178.317z"/>
		<path fill="#FFFFFF" d="M217.319,115.168c-10.486-15.427-31.492-19.432-46.921-8.947c-0.479,0.326-0.948,0.662-1.405,1.008
			c-0.185,0.14-0.36,0.288-0.542,0.431c-0.266,0.21-0.536,0.417-0.795,0.633c-0.235,0.197-0.458,0.402-0.686,0.604
			c-0.194,0.171-0.393,0.339-0.582,0.514c-0.261,0.242-0.51,0.492-0.761,0.741c-0.145,0.143-0.296,0.282-0.438,0.428
			c-0.276,0.283-0.539,0.574-0.804,0.864c-0.108,0.118-0.221,0.233-0.326,0.352c-0.283,0.32-0.553,0.648-0.823,0.977
			c-0.078,0.096-0.161,0.188-0.238,0.285c-0.287,0.358-0.561,0.724-0.832,1.093c-0.052,0.071-0.108,0.139-0.159,0.21
			c-0.283,0.392-0.555,0.791-0.82,1.194c-0.033,0.05-0.069,0.099-0.102,0.149c-0.276,0.425-0.541,0.856-0.797,1.291
			c-0.017,0.03-0.037,0.059-0.054,0.088c-0.265,0.454-0.519,0.913-0.761,1.378c-0.006,0.012-0.013,0.024-0.02,0.036
			c-1.495,2.867-2.565,5.925-3.191,9.071c0.324-0.242,0.652-0.48,0.99-0.71c12.476-8.478,29.463-5.239,37.942,7.236
			c7.225,10.63,5.934,24.531-2.32,33.657c0.001,0,0.001,0,0.002,0c0.417-0.043,0.834-0.097,1.25-0.155
			c0.172-0.024,0.343-0.05,0.514-0.077c0.42-0.066,0.84-0.137,1.258-0.219c0.132-0.026,0.263-0.056,0.395-0.084
			c0.345-0.072,0.69-0.149,1.033-0.233c0.147-0.036,0.294-0.07,0.441-0.107c0.426-0.109,0.85-0.227,1.272-0.353
			c0.138-0.041,0.276-0.085,0.413-0.128c0.386-0.121,0.77-0.247,1.153-0.382c0.078-0.027,0.156-0.052,0.233-0.08
			c0.441-0.159,0.879-0.332,1.316-0.511c0.121-0.049,0.241-0.099,0.362-0.15c0.438-0.185,0.873-0.378,1.305-0.583
			c0.08-0.038,0.16-0.079,0.24-0.118c0.396-0.192,0.79-0.392,1.182-0.601c0.083-0.044,0.166-0.087,0.248-0.132
			c0.433-0.236,0.863-0.483,1.29-0.74c0.094-0.056,0.187-0.114,0.28-0.171c0.439-0.27,0.875-0.547,1.306-0.84
			C223.797,151.603,227.802,130.597,217.319,115.168z"/>
	</g>
</g>
</svg>
