<?xml version="1.0" encoding="utf-8"?>
<!-- Generator: Adobe Illustrator 27.6.1, SVG Export Plug-In . SVG Version: 6.00 Build 0)  -->
<svg version="1.1" id="Layer_1" xmlns="http://www.w3.org/2000/svg" xmlns:xlink="http://www.w3.org/1999/xlink" x="0px" y="0px"
	 viewBox="0 0 804 286.6" style="enable-background:new 0 0 804 286.6;" xml:space="preserve">
<style type="text/css">
	.st0{fill:#FFFFFF;}
</style>
<path class="st0" d="M88.7,286.5c-24-1-43.6-7.5-58.9-19.7c-2.9-2.3-9.9-9.3-12.2-12.2c-6.2-7.8-10.4-15.4-13.3-23.9
	c-8.7-26-4.2-60.1,12.8-97.5c14.5-32,37-63.8,76.1-107.8C99,18.9,116.1,0,116.2,0c0,0-0.9,1.6-2.1,3.6c-10.2,17-18.9,37.1-23.6,54.5
	c-7.6,27.9-6.7,51.8,2.7,70.4c6.5,12.8,17.6,23.9,30.1,30c21.9,10.7,53.9,11.6,92.9,2.6c2.7-0.6,136-36,296.3-78.7
	C672.8,39.8,804,5,804,5S431.6,164.4,238.3,247.1c-30.6,13.1-38.8,16.4-53.2,21.4C148.3,281.4,115.3,287.6,88.7,286.5L88.7,286.5z"
	/>
</svg>
