<?xml version="1.0" encoding="utf-8"?>
<!-- Generator: Adobe Illustrator 27.6.1, SVG Export Plug-In . SVG Version: 6.00 Build 0)  -->
<svg version="1.1" id="Layer_1" xmlns="http://www.w3.org/2000/svg" xmlns:xlink="http://www.w3.org/1999/xlink" x="0px" y="0px"
	 viewBox="0 0 3719.1 504.6" style="enable-background:new 0 0 3719.1 504.6;" xml:space="preserve">
<style type="text/css">
	.st0{display:none;fill:#FFFFFF;}
	.st1{fill:#FFFFFF;}
</style>
<g>
	<path class="st0" d="M0,509.9c0-172.3,0-344.7,0-517c1242.7,0,2485.3,0,3728,0c0,172.3,0,344.7,0,517
		C2485.3,509.9,1242.7,509.9,0,509.9z M1539.2,6.9c-2.7,0-5.2,0-7.7,0c-35.5,0-71,0-106.5,0c-2.6,0-4.7,0.1-5.4,3.3
		c-4.3,20.3-8.6,40.6-13.1,60.8c-5.6,25.3-11.2,50.5-17,75.7c-4.6,20.2-9.3,40.4-14,60.6c-3.7,16.3-7.3,32.6-11,48.9
		c-3.6,15.7-7.3,31.3-10.9,46.9c-0.5,2.3,0.7,5.1-3.4,5.2c-3.7,0.1-5.2-1.6-6.1-4.9c-3.8-13.9-7.8-27.7-11.8-41.6
		c-5.4-18.8-10.8-37.5-16.2-56.3c-6.9-24.1-13.8-48.3-20.8-72.5c-6.2-21.4-12.6-42.7-18.8-64.1c-5.4-18.8-10.6-37.6-16.1-56.3
		c-0.6-2.1-0.6-5-4.8-5c-23.2,0.2-46.3,0.1-69.5,0.2c-1.2,0-3.2,1.3-3.5,2.3c-7.8,26.4-15.5,52.8-23.1,79.3
		c-6.2,21.9-12.2,43.8-18.4,65.7c-8,28-16,56-24.1,84c-3.6,12.4-7.5,24.8-11.2,37.2c-2.7,9.2-5.3,18.5-7.9,27.7
		c-0.7,2.5-1.6,5.2-4.8,3.9c-1.9-0.8-4.1-2.6-4.6-4.4c-1.8-6.7-2.7-13.6-4.2-20.3c-5.7-25.6-11.4-51.1-17.3-76.6
		c-4.4-19.1-9.2-38.1-13.6-57.2c-5.2-22.9-10-45.9-15.1-68.8c-3.2-14.4-6.7-28.8-9.9-43.2c-1.9-8.5-3.4-17-5.1-25.6
		c-0.8-4.1-2.1-7.2-7.4-5.4c-1.5,0.5-3.3,0.2-4.9,0.2c-34.2,0-68.3,0-102.5,0c-1.7,0-3.4,0-5.7,0c3.7,13.2,7.2,25.5,10.5,37.9
		c8.6,32.6,17,65.2,25.5,97.8c6.9,26.5,13.8,53.1,20.9,79.5c4.7,17.5,10,34.8,14.6,52.3c3.7,14,6.5,28.1,10.2,42.1
		c5.9,22.6,12.3,45.1,18.4,67.7c5.9,22.1,11.6,44.4,17.5,66.5c3.5,13.3,7.3,26.6,11,39.8c0.4,1.4,0.1,3.2,3.5,3.1
		c9.2-0.5,18.5,0.3,27.7,0.4c20.4,0.1,40.7,0.1,61.1-0.1c1.6,0,4-1.2,4.5-2.4c2-4.9,3.4-10,5.1-15c8.3-25.6,16.5-51.1,24.9-76.7
		c7-21.4,14.2-42.7,21.2-64.2c6.4-19.6,12.7-39.2,19-58.8c5.4-16.9,10.7-33.8,16.2-50.7c1-3,2.5-6.1,6.7-5.6
		c3.8,0.4,5.4,2.6,6.2,6.3c1.1,5.1,3,10.1,4.7,15.1c6.7,20.4,13.4,40.7,20.1,61.1c8.3,25.2,16.6,50.4,24.8,75.6
		c6.7,20.4,13.5,40.7,20.1,61.1c5.6,17.2,10.8,34.5,16.4,51.7c0.4,1.2,2.8,2.5,4.3,2.5c8.9,0.1,17.7-0.1,26.6-0.2
		c20.7-0.1,41.4-0.4,62.2-0.1c3.2,0.1,3.7-1.4,4.3-3.1c1.1-3,1.5-6.2,2.3-9.2c2.9-10.8,5.8-21.7,8.6-32.5
		c3.8-14.9,7.5-29.9,11.4-44.7c5.7-21.5,11.6-43,17.3-64.6c5.3-20.1,10.5-40.3,15.8-60.4c4.4-16.6,8.9-33.1,13.4-49.6
		c3.4-12.2,7.1-24.3,10.3-36.5c5.9-22.8,11.4-45.8,17.3-68.6c5.3-20.3,11-40.5,16.5-60.8C1529.3,44.8,1534.1,26.1,1539.2,6.9z
		 M2842.2,493.5c0-0.8,0-1.6,0-2.4c0-69.2-0.1-138.5,0-207.7c0-16.8,0.7-33.5,0.9-50.3c0.1-10.2-0.3-20.3-0.4-30.5
		c-0.2-23.4-0.2-46.8-0.6-70.1c-0.2-9.5-1.2-19-1.9-28.4c-1.1-14-4.3-27.6-9-40.9c-9.3-26.3-28.7-41.3-54.5-49.2
		c-14.1-4.3-28.5-7.3-43.3-8.2c-15.3-0.9-30.5-3.7-45.7-3.7c-44.6,0.1-89.2-1.9-133.7,1.8c-8.5,0.7-17.1,0.6-25.5,2.2
		c-15.6,2.9-31.4,5.1-46.2,11.6c-13.7,6-25.6,13.8-34.2,26.3c-9.6,13.9-14,29.6-17.3,46c-3.4,17.2-4.4,34.5-4.5,51.7
		c-0.4,114.8-0.2,229.5-0.2,344.3c0,1.8,0.1,3.6,0.7,5.2c0.4,1.1,1.5,2.6,2.4,2.7c6,0.2,12,0.1,18,0.1c29.6,0,59.2,0,88.9,0
		c0-46.5,0.1-92.2-0.1-138c0-4.7,1.3-5.9,5.9-5.8c61.5,0.2,122.9,0.1,184.4,0.1c1,0,2-0.1,3,0c2.6,0.3,4.2,1.4,3.8,4.4
		c-0.4,2.9-1,5.8-1,8.7c0,7.3,0.4,14.5,0.4,21.8c0.1,21.5,0.2,43.1,0.2,64.6c0,14.6,0,29.2,0,43.8
		C2769.8,493.5,2805.9,493.5,2842.2,493.5z M461.9,348.6c0.6,21.9,1.7,43.5,5.8,65.1c2.6,13.6,7,26.2,13.6,38.2
		c9.8,17.7,25.7,27.6,44.2,34c11.9,4.1,24.1,7.1,36.8,8c23.1,1.7,46.1,3.8,69.2,4.8c18.3,0.8,36.6,0.4,54.9,0.1
		c20.3-0.4,40.7-1,61-2c10.8-0.5,21.5-1.8,32.2-2.9c19.1-1.9,37.2-6.9,54.2-15.9c17.4-9.3,28.1-24.2,34.7-42
		c6.9-18.5,8.8-38.1,10.1-57.6c0.8-12.6,1-25.3,1-37.9c0.1-31.6,0.2-63.2,0-94.8c-0.2-35.2-0.6-70.4-1-105.5
		c-0.1-6.6-0.9-13.1-0.9-19.7c0.1-13.8-2.1-27.2-5.1-40.6c-3.7-17-10.6-32.5-22.7-45c-9.3-9.6-21.3-15.6-34-19.9
		c-16.1-5.5-32.8-8.4-49.7-10c-13.3-1.3-26.7-3-40-2.9c-44,0.4-88-2.2-132,1.9c-14.4,1.4-28.8,3.1-43.2,5
		c-16.5,2.1-32.2,7-46.4,15.9c-11.2,7-20,16.3-25.8,28c-11.3,22.7-14.8,47.4-15.9,72.3c-1.3,28.6-1.1,57.2-1.2,85.8
		C461.8,256.8,461.9,302.7,461.9,348.6z M2910.2,6.9c0,1.5,0,2.3,0,3.1c0,159.6,0,319.3-0.1,478.9c0,4,1.3,4.9,5,4.7
		c4.9-0.3,9.9,0.1,14.8,0.1c20.4,0.1,40.8,0.2,61.2,0.2c31.7,0,63.4,0.3,95-0.1c22.9-0.2,45.8-1.5,68.8-1.8
		c17.4-0.2,34.6-2.3,51.7-5c20.2-3.2,39.5-8.4,57.1-19.2c14.4-8.9,25.1-21.3,32-36.4c4.4-9.7,6.4-20.4,9.5-30.6
		c4.7-15.8,5.6-32.2,5.7-48.4c0.4-62.9,0.3-125.7,0.1-188.6c-0.1-14.8-1.1-29.6-1.9-44.4c-0.9-15.7-4.6-30.7-9.8-45.7
		c-9.2-26.5-28-42.4-53.4-52c-17.7-6.7-36.2-9.5-54.7-11.7c-17-2-34.1-3-51.2-3.1c-74.6-0.3-149.2-0.1-223.9-0.1
		C2914.3,6.9,2912.5,6.9,2910.2,6.9z M2378.7,493.9c-1.1-2.3-1.6-4.2-2.7-5.7c-14.1-20.8-28.2-41.6-42.4-62.4
		c-7.8-11.5-15.6-22.9-23.4-34.3c-11.3-16.7-22.6-33.3-33.8-50c-1.9-2.9-2-5.5,2.4-6.3c2-0.4,4.1-0.9,5.9-1.9
		c11.1-6,22.5-11.7,33.2-18.4c12.9-8,22-19.7,29-33c6.9-13.1,12.7-26.6,14.4-41.6c1.5-13.7,4.4-27.4,4.7-41.2
		c0.4-19.4-0.8-38.9-1.8-58.4c-0.4-8.2-1.2-16.6-3.3-24.6c-3.2-12.2-7.1-24.2-11.6-36c-8.9-23.5-25.3-40.7-47.4-52.4
		c-14.6-7.7-30.1-12.9-46.5-14.9c-17.3-2.1-34.6-5.6-52-5.7c-78.1-0.6-156.3-0.3-234.4-0.3c-1.4,0-2.9,0-4.4,0
		c0,162.6,0,324.7,0,487.1c4,0,7.8,0,11.6,0c31.1-0.2,62.3-0.7,93.4-0.3c6,0.1,5.8-2,5.8-6.1c0-124.1,0-248.2,0-372.3
		c0-1.8,0-3.6,0-5.6c2.1,0,3.7,0,5.4,0c34.8,0,69.6-0.2,104.5,0.1c9.2,0.1,18.6,1.1,27.7,3c15.1,3.3,26.4,11.9,33.6,26.1
		c5.8,11.4,7.1,23.5,7.6,35.7c0.7,17.1,0.4,34.3-4.6,51.1c-5.1,17.1-15.3,28.8-32.1,34.7c-10.7,3.8-22,4.6-33.1,4.8
		c-25.2,0.4-50.3,0.1-75.5,0.1c-1.8,0-3.5,0-6.7,0c2.9,4.5,5,7.9,7.3,11.3c13.6,20,27.3,39.9,40.7,60c16.5,24.6,32.9,49.2,49.3,73.9
		c8.8,13.1,17.5,26.2,26.3,39.4c8,11.9,15.7,24,24,35.6c3,4.3,5.4,9.4,13,8.7c10.9-1,22-0.3,33-0.3
		C2323.3,493.9,2350.7,493.9,2378.7,493.9z M3370.8,493.9c10.6,0,20.4,0.1,30.2,0c40.5-0.3,81-0.8,121.5-0.8
		c60.5,0.1,121,0.5,181.5,0.9c4.9,0,6.1-1.5,6.1-6.2c-0.2-30.6-0.1-61.2-0.1-91.8c0-1.6,0-3.2,0-4.9c-2.5,0-4.3,0-6.1,0
		c-62.8,0-125.6,0-188.4,0c-10.7,0-21.3,0-32,0c-2.5,0-3.9-0.1-3.7-3.6c0.3-5.5-0.6-11.1-0.7-16.7c-0.1-19.8-0.1-39.6,0-59.5
		c0-2.8,0.6-5.6,0.1-8.4c-0.9-5.7-0.2-6.7,5.7-6.7c61.6,0,123.3-0.1,184.9,0.1c5.2,0,6.4-1.5,6.3-6.5c-0.5-24.6-0.6-49.2-0.7-73.8
		c0-4.8,0.5-9.7,0.8-14.8c-65.8,0-130.7,0-196.1,0c-0.4-7.2-1-14.3-1-21.3c-0.1-18-0.1-35.9,0-53.9c0-3.2,0.7-6.5,0.3-9.6
		c-0.9-6.4-0.6-7,5.6-7c73.1,0,146.3,0,219.4,0.1c4.4,0,5.7-1.2,5.6-5.6c-0.2-31.1-0.1-62.2-0.1-93.3c0-1.3-0.2-2.5-0.2-3.7
		c-113.4,0-226.4,0-338.9,0C3370.8,169.5,3370.8,331.6,3370.8,493.9z M1910,6.8c-113,0-226.1,0-339.2,0c0,162.7,0,324.8,0,487.3
		c4.9-0.4,9.7-1.1,14.4-1c14.4,0.1,28.9,0.7,43.3,0.8c86.5,0.1,172.9,0,259.4,0c5.7,0,11.4,0.1,17.1-0.3c2.2-0.2,5.7,0.1,5.6-3.8
		c-0.2-7.1-0.5-14.2-0.7-21.3c-0.2-8.8-0.2-17.6-0.3-26.4c0-9.1,0-18.3,0-27.4c0-5.6-0.5-11.4,0.3-16.9c0.9-6.7,1.4-6.7-5.4-6.7
		c-73.1,0-146.3,0-219.4,0c-1.8,0-3.6,0-5.7,0c0-31.5,0-62.5,0-93.8c2.5,0,4.3,0,6.1,0c57.8,0,115.6,0,173.4,0
		c3.9,0,7.9-0.9,11.6-0.4c4.1,0.6,5.2-0.7,5.2-4.5c-0.1-29.3,0-58.5-0.1-87.8c0-0.6-0.1-1.2-0.2-2c-65.3,0-130.5,0-195.7,0
		c0-26.6,0-52.4,0-78.1c0-2.1-0.5-4.1-0.8-6.2c-1.3-8-0.8-8.6,7.7-8.6c71.6,0,143.3,0,214.9,0c2.8,0,5.6-0.2,8.7-0.4
		C1910,75.1,1910,41.3,1910,6.8z M129.2,493.5c0-128,0-255.8,0-383.9c2,0,3.7,0,5.3,0c36.5,0,73-0.1,109.5,0.1
		c6.2,0,12.4,0.7,18.4,2c9.7,2.2,19.1,5.7,26.8,12.5c13.6,11.9,17.5,28.3,18.4,44.9c1,16.5,1.5,33.1-2.5,49.6
		c-4.8,20-14.6,34.8-34.8,41.5c-10.8,3.6-22,4.6-33.1,4.8c-24.8,0.5-49.6,0.1-74.5,0.2c-1.5,0-3.1,0.2-5.3,0.3
		c1.8,2.8,3.2,4.9,4.6,7c10.2,14.9,20.3,29.9,30.6,44.7c10.2,14.7,20.8,29.1,30.8,44c2.8,4.2,5.4,6.4,10.8,6c15-1.1,30.1-0.8,45-2.3
		c14.1-1.4,28.2-3.9,42.1-6.9c20.9-4.7,39.7-14.2,55.7-28.5c15.4-13.8,25.1-31.7,31.6-50.9c7.5-21.9,10-44.8,11.2-67.9
		c0.6-11.3,0.5-22.6,0-33.9c-0.6-15.4-1.8-30.8-2.9-46.2c-1.2-15.2-4.5-30-10.1-44.1c-6.2-15.6-13.9-30.7-27-41.6
		c-9-7.6-19-14.6-29.6-19.7c-13.6-6.4-28.3-10.1-43.3-12.8c-18.1-3.3-36.3-5.2-54.5-5.4C177,6.5,101.7,6.9,26.4,6.9
		c-2.2,0-4.4,0-7.4,0c0,162.1,0,324.5,0,486.7C55.8,493.5,92.2,493.5,129.2,493.5z"/>
	<path class="st1" d="M1539.2,6.9c-5.1,19.2-9.9,37.9-15,56.6c-5.4,20.3-11.2,40.5-16.5,60.8c-5.9,22.8-11.4,45.7-17.3,68.6
		c-3.2,12.2-6.9,24.3-10.3,36.5c-4.5,16.5-9,33.1-13.4,49.6c-5.3,20.1-10.5,40.3-15.8,60.4c-5.7,21.5-11.6,43-17.3,64.6
		c-3.9,14.9-7.5,29.8-11.4,44.7c-2.8,10.9-5.8,21.7-8.6,32.5c-0.8,3.1-1.2,6.3-2.3,9.2c-0.6,1.6-1.1,3.1-4.3,3.1
		c-20.7-0.4-41.4,0-62.2,0.1c-8.9,0.1-17.7,0.3-26.6,0.2c-1.5,0-3.9-1.3-4.3-2.5c-5.6-17.2-10.9-34.5-16.4-51.7
		c-6.6-20.4-13.4-40.7-20.1-61.1c-8.3-25.2-16.6-50.4-24.8-75.6c-6.7-20.4-13.4-40.7-20.1-61.1c-1.6-5-3.5-10-4.7-15.1
		c-0.8-3.7-2.4-5.8-6.2-6.3c-4.2-0.5-5.7,2.6-6.7,5.6c-5.5,16.9-10.8,33.8-16.2,50.7c-6.3,19.6-12.6,39.2-19,58.8
		c-7,21.4-14.2,42.7-21.2,64.2c-8.4,25.5-16.6,51.1-24.9,76.7c-1.6,5-3,10.1-5.1,15c-0.5,1.3-2.9,2.4-4.5,2.4
		c-20.4,0.2-40.7,0.2-61.1,0.1c-9.2,0-18.5-0.9-27.7-0.4c-3.3,0.2-3.1-1.6-3.5-3.1c-3.8-13.2-7.5-26.5-11-39.8
		c-5.9-22.1-11.6-44.4-17.5-66.5c-6.1-22.6-12.5-45.1-18.4-67.7c-3.7-14-6.5-28.2-10.2-42.1c-4.6-17.5-9.9-34.8-14.6-52.3
		c-7.1-26.5-13.9-53-20.9-79.5c-8.5-32.6-16.9-65.2-25.5-97.8c-3.3-12.4-6.8-24.7-10.5-37.9c2.3,0,4,0,5.7,0c34.2,0,68.3,0,102.5,0
		c1.7,0,3.4,0.3,4.9-0.2c5.3-1.8,6.6,1.3,7.4,5.4c1.6,8.5,3.2,17.1,5.1,25.6c3.2,14.4,6.7,28.8,9.9,43.2
		c5.1,22.9,9.9,45.9,15.1,68.8c4.3,19.1,9.2,38.1,13.6,57.2c5.9,25.5,11.6,51.1,17.3,76.6c1.5,6.8,2.5,13.6,4.2,20.3
		c0.5,1.8,2.7,3.7,4.6,4.4c3.2,1.3,4.1-1.4,4.8-3.9c2.6-9.3,5.1-18.5,7.9-27.7c3.7-12.4,7.6-24.8,11.2-37.2c8.1-28,16.2-56,24.1-84
		c6.2-21.9,12.1-43.8,18.4-65.7c7.6-26.5,15.3-52.9,23.1-79.3c0.3-1.1,2.3-2.3,3.5-2.3c23.2-0.1,46.3,0,69.5-0.2
		c4.1,0,4.1,2.9,4.8,5c5.5,18.7,10.7,37.6,16.1,56.3c6.2,21.4,12.6,42.7,18.8,64.1c7,24.1,13.9,48.3,20.8,72.5
		c5.4,18.8,10.8,37.5,16.2,56.3c4,13.8,7.9,27.7,11.8,41.6c0.9,3.3,2.4,5,6.1,4.9c4.1-0.1,2.9-3,3.4-5.2
		c3.6-15.7,7.3-31.3,10.9-46.9c3.7-16.3,7.3-32.6,11-48.9c4.6-20.2,9.4-40.4,14-60.6c5.7-25.2,11.4-50.5,17-75.7
		c4.5-20.3,8.8-40.6,13.1-60.8c0.7-3.2,2.8-3.3,5.4-3.3c35.5,0.1,71,0,106.5,0C1534,6.9,1536.5,6.9,1539.2,6.9z"/>
	<path class="st1" d="M2842.2,493.5c-36.3,0-72.5,0-109.3,0c0-14.5,0-29.1,0-43.8c-0.1-21.5-0.1-43.1-0.2-64.6
		c0-7.3-0.4-14.5-0.4-21.8c0-2.9,0.5-5.8,1-8.7c0.4-3-1.1-4.1-3.8-4.4c-1-0.1-2,0-3,0c-61.5,0-122.9,0-184.4-0.1
		c-4.6,0-5.9,1.2-5.9,5.8c0.2,45.7,0.1,91.5,0.1,138c-29.7,0-59.3,0-88.9,0c-6,0-12,0.1-18-0.1c-0.9,0-2-1.6-2.4-2.7
		c-0.5-1.6-0.7-3.5-0.7-5.2c0-114.8-0.2-229.5,0.2-344.3c0.1-17.2,1.1-34.5,4.5-51.7c3.3-16.5,7.6-32.1,17.3-46
		c8.6-12.4,20.5-20.2,34.2-26.3c14.8-6.5,30.6-8.7,46.2-11.6c8.3-1.6,17-1.5,25.5-2.2c44.5-3.7,89.1-1.7,133.7-1.8
		c15.2,0,30.5,2.8,45.7,3.7c14.8,0.9,29.2,3.9,43.3,8.2c25.8,7.8,45.2,22.9,54.5,49.2c4.7,13.3,7.9,26.9,9,40.9
		c0.7,9.5,1.8,19,1.9,28.4c0.4,23.4,0.4,46.7,0.6,70.1c0.1,10.2,0.5,20.3,0.4,30.5c-0.2,16.8-0.9,33.6-0.9,50.3
		c-0.1,69.2,0,138.5,0,207.7C2842.2,491.9,2842.2,492.7,2842.2,493.5z M2537.3,257c0.7,0.2,1,0.4,1.3,0.4c63.1,0,126.3,0,189.4,0.1
		c3.8,0,4.3-1.7,4.3-4.9c-0.1-28.9,0-57.9-0.1-86.8c0-8.4-0.2-16.8-1.1-25.2c-1.2-12.1-6.5-21.7-18.3-27
		c-12.8-5.8-26.6-7.1-40.3-7.7c-15.8-0.7-31.6-0.2-47.5-0.2c-19.2,0-38.5-1-57.4,4c-9.7,2.6-18.9,5.8-24.6,15.3
		c-3.9,6.5-5.7,13.4-5.7,20.6c-0.2,32.6-0.1,65.1-0.1,97.7C2537.3,247.9,2537.3,252.5,2537.3,257z"/>
	<path class="st1" d="M461.9,348.6c0-45.9-0.1-91.8,0-137.7c0.1-28.6-0.1-57.2,1.2-85.8c1.1-24.9,4.5-49.6,15.9-72.3
		c5.8-11.7,14.7-21,25.8-28c14.2-8.9,29.9-13.8,46.4-15.9c14.4-1.9,28.8-3.6,43.2-5c43.9-4.1,88-1.5,132-1.9
		c13.3-0.1,26.7,1.6,40,2.9c16.9,1.6,33.6,4.5,49.7,10c12.7,4.3,24.6,10.3,34,19.9c12.1,12.5,19,28.1,22.7,45
		c2.9,13.4,5.2,26.8,5.1,40.6c0,6.6,0.8,13.1,0.9,19.7c0.4,35.2,0.8,70.4,1,105.5c0.2,31.6,0.1,63.2,0,94.8
		c-0.1,12.6-0.2,25.3-1,37.9c-1.3,19.5-3.3,39.2-10.1,57.6c-6.6,17.7-17.3,32.7-34.7,42c-17,9.1-35.2,14-54.2,15.9
		c-10.7,1.1-21.5,2.4-32.2,2.9c-20.3,1-40.7,1.6-61,2c-18.3,0.3-36.6,0.7-54.9-0.1c-23.1-1-46.2-3.2-69.2-4.8
		c-12.6-0.9-24.9-3.9-36.8-8c-18.5-6.4-34.4-16.3-44.2-34c-6.6-12-11-24.6-13.6-38.2C463.6,392.1,462.5,370.5,461.9,348.6z
		 M768.8,251.8c-0.3,0-0.7,0-1,0c0-36.8,0.1-73.7,0-110.5c0-13.6-12-29-25.4-31.3c-13-2.2-26.3-3.5-39.5-4.1
		c-14.6-0.7-29.3-0.1-44-0.2c-18.9-0.1-37.9-0.5-56.4,4c-10.4,2.5-19.3,7.2-24.4,17.3c-5.2,10.4-5.1,21.6-5.1,32.7
		c0.1,66.5,0.1,132.9,1.2,199.4c0.3,17.2,5.5,26,22.6,30.8c11.6,3.2,24,4.5,36.1,5.1c17.1,0.8,34.3,0.2,51.5,0.2
		c19.1,0,38.2,0.2,56.9-4c8.5-1.9,15.9-5.4,21.3-13c6-8.5,5.9-18.2,6.1-27.5C769.1,317.7,768.8,284.7,768.8,251.8z"/>
	<path class="st1" d="M2910.2,6.9c2.3,0,4.1,0,5.9,0c74.6,0,149.3-0.2,223.9,0.1c17.1,0.1,34.3,1.1,51.2,3.1
		c18.5,2.2,37.1,5,54.7,11.7c25.4,9.6,44.2,25.5,53.4,52c5.2,14.9,8.9,30,9.8,45.7c0.8,14.8,1.9,29.6,1.9,44.4
		c0.2,62.9,0.3,125.7-0.1,188.6c-0.1,16.2-1.1,32.6-5.7,48.4c-3,10.3-5.1,21-9.5,30.6c-6.8,15.2-17.5,27.5-32,36.4
		c-17.6,10.8-36.9,16-57.1,19.2c-17.2,2.7-34.3,4.8-51.7,5c-22.9,0.2-45.8,1.5-68.8,1.8c-31.7,0.3-63.4,0.1-95,0.1
		c-20.4,0-40.8-0.1-61.2-0.2c-4.9,0-9.9-0.4-14.8-0.1c-3.7,0.2-5-0.6-5-4.7c0.1-159.6,0.1-319.3,0.1-478.9
		C2910.2,9.2,2910.2,8.3,2910.2,6.9z M3021.5,109.7c0,94.1,0,187.7,0,281.3c0.9,0,1.6,0.1,2.2,0.1c35.2-0.3,70.5-0.9,105.7-0.9
		c12.9,0,25.5-1.6,37.9-4.2c12.3-2.6,23.3-8.1,27.9-20.7c2.7-7.3,4.6-15.3,4.7-23c0.4-49.2,0.3-98.5,0.2-147.7
		c0-16.2,0.4-32.5-1.2-48.6c-1.8-18-8.3-26.2-25.9-31.3c-14.5-4.2-29.4-5-44.3-5c-34,0-68,0-102,0
		C3025,109.7,3023.4,109.7,3021.5,109.7z"/>
	<path class="st1" d="M2378.7,493.9c-28,0-55.4,0-82.9,0c-11,0-22.1-0.8-33,0.3c-7.6,0.7-10-4.4-13-8.7c-8.3-11.7-16-23.7-24-35.6
		c-8.8-13.1-17.5-26.2-26.3-39.4c-16.4-24.6-32.8-49.3-49.3-73.9c-13.5-20.1-27.2-40-40.7-60c-2.3-3.4-4.4-6.9-7.3-11.3
		c3.2,0,4.9,0,6.7,0c25.2,0,50.3,0.3,75.5-0.1c11.2-0.2,22.4-1.1,33.1-4.8c16.8-5.9,27-17.6,32.1-34.7c5.1-16.8,5.4-33.9,4.6-51.1
		c-0.5-12.2-1.8-24.3-7.6-35.7c-7.3-14.1-18.5-22.8-33.6-26.1c-9-2-18.4-2.9-27.7-3c-34.8-0.3-69.6-0.1-104.5-0.1
		c-1.6,0-3.3,0-5.4,0c0,2.1,0,3.9,0,5.6c0,124.1,0,248.2,0,372.3c0,4.1,0.2,6.2-5.8,6.1c-31.1-0.4-62.2,0.1-93.4,0.3
		c-3.8,0-7.6,0-11.6,0c0-162.3,0-324.5,0-487.1c1.5,0,3,0,4.4,0c78.1,0,156.3-0.4,234.4,0.3c17.3,0.1,34.7,3.6,52,5.7
		c16.4,2,31.9,7.2,46.5,14.9c22.2,11.7,38.5,28.9,47.4,52.4c4.5,11.8,8.4,23.8,11.6,36c2.1,8,2.8,16.4,3.3,24.6
		c1,19.4,2.2,38.9,1.8,58.4c-0.3,13.7-3.2,27.4-4.7,41.2c-1.7,15-7.5,28.5-14.4,41.6c-7,13.3-16.2,25-29,33
		c-10.7,6.7-22.1,12.4-33.2,18.4c-1.8,1-3.9,1.5-5.9,1.9c-4.4,0.8-4.3,3.4-2.4,6.3c11.2,16.7,22.5,33.4,33.8,50
		c7.8,11.5,15.6,22.9,23.4,34.3c14.1,20.8,28.3,41.5,42.4,62.4C2377.1,489.8,2377.7,491.6,2378.7,493.9z"/>
	<path class="st1" d="M3370.8,493.9c0-162.3,0-324.4,0-486.8c112.5,0,225.5,0,338.9,0c0.1,1.2,0.2,2.5,0.2,3.7
		c0,31.1-0.1,62.2,0.1,93.3c0,4.4-1.3,5.6-5.6,5.6c-73.1-0.1-146.3-0.1-219.4-0.1c-6.2,0-6.5,0.6-5.6,7c0.4,3.1-0.3,6.4-0.3,9.6
		c0,18-0.1,35.9,0,53.9c0.1,7.1,0.7,14.1,1,21.3c65.4,0,130.3,0,196.1,0c-0.3,5.1-0.8,9.9-0.8,14.8c0.1,24.6,0.3,49.2,0.7,73.8
		c0.1,5-1.1,6.5-6.3,6.5c-61.6-0.2-123.3-0.1-184.9-0.1c-5.9,0-6.5,1-5.7,6.7c0.4,2.7-0.1,5.6-0.1,8.4c0,19.8-0.1,39.6,0,59.5
		c0,5.6,1,11.2,0.7,16.7c-0.2,3.5,1.2,3.6,3.7,3.6c10.7,0,21.3,0,32,0c62.8,0,125.6,0,188.4,0c1.8,0,3.6,0,6.1,0c0,1.7,0,3.3,0,4.9
		c0,30.6-0.1,61.2,0.1,91.8c0,4.7-1.1,6.2-6.1,6.2c-60.5-0.5-121-0.9-181.5-0.9c-40.5,0-81,0.5-121.5,0.8
		C3391.3,494,3381.4,493.9,3370.8,493.9z"/>
	<path class="st1" d="M1910,6.8c0,34.4,0,68.3,0,102.5c-3.1,0.1-5.9,0.4-8.7,0.4c-71.6,0-143.3,0-214.9,0c-8.4,0-9,0.6-7.7,8.6
		c0.3,2.1,0.8,4.1,0.8,6.2c0.1,25.8,0,51.5,0,78.1c65.3,0,130.4,0,195.7,0c0.1,0.8,0.2,1.4,0.2,2c0,29.3,0,58.5,0.1,87.8
		c0,3.8-1,5.1-5.2,4.5c-3.8-0.6-7.7,0.4-11.6,0.4c-57.8,0-115.6,0-173.4,0c-1.8,0-3.6,0-6.1,0c0,31.3,0,62.3,0,93.8
		c2.1,0,3.9,0,5.7,0c73.1,0,146.3,0,219.4,0c6.8,0,6.3,0,5.4,6.7c-0.8,5.5-0.3,11.3-0.3,16.9c0,9.1,0,18.3,0,27.4
		c0,8.8,0.1,17.6,0.3,26.4c0.1,7.1,0.5,14.2,0.7,21.3c0.1,3.9-3.3,3.7-5.6,3.8c-5.7,0.4-11.4,0.3-17.1,0.3c-86.5,0-172.9,0-259.4,0
		c-14.4,0-28.9-0.6-43.3-0.8c-4.7,0-9.4,0.6-14.4,1c0-162.5,0-324.6,0-487.3C1683.9,6.8,1796.9,6.8,1910,6.8z"/>
	<path class="st1" d="M129.2,493.5c-37,0-73.4,0-110.1,0C19,331.4,19,169,19,6.9c3,0,5.2,0,7.4,0c75.3,0,150.6-0.3,225.9,0.2
		c18.2,0.1,36.4,2.1,54.5,5.4c15,2.7,29.7,6.3,43.3,12.8c10.6,5,20.5,12.1,29.6,19.7c13.1,11,20.8,26,27,41.6
		c5.6,14.1,8.9,28.9,10.1,44.1c1.2,15.4,2.3,30.8,2.9,46.2c0.5,11.3,0.6,22.6,0,33.9c-1.2,23-3.7,46-11.2,67.9
		c-6.5,19.2-16.2,37.1-31.6,50.9c-16,14.3-34.8,23.9-55.7,28.5c-13.9,3.1-28,5.5-42.1,6.9c-14.9,1.5-30,1.3-45,2.3
		c-5.4,0.4-8-1.9-10.8-6c-10-14.8-20.6-29.3-30.8-44c-10.3-14.8-20.4-29.8-30.6-44.7c-1.4-2.1-2.8-4.2-4.6-7
		c2.2-0.1,3.8-0.3,5.3-0.3c24.8,0,49.7,0.3,74.5-0.2c11.1-0.2,22.3-1.2,33.1-4.8c20.2-6.7,30.1-21.5,34.8-41.5
		c3.9-16.5,3.4-33.2,2.5-49.6c-1-16.6-4.8-33-18.4-44.9c-7.7-6.8-17-10.3-26.8-12.5c-6-1.4-12.3-2-18.4-2
		c-36.5-0.2-73-0.1-109.5-0.1c-1.6,0-3.3,0-5.3,0C129.2,237.7,129.2,365.6,129.2,493.5z"/>
</g>
</svg>
