<?xml version="1.0" encoding="utf-8"?>
<!-- Generator: Adobe Illustrator 27.6.1, SVG Export Plug-In . SVG Version: 6.00 Build 0)  -->
<svg version="1.1" id="Layer_1" xmlns="http://www.w3.org/2000/svg" xmlns:xlink="http://www.w3.org/1999/xlink" x="0px" y="0px"
	 viewBox="0 0 677.9 284.4" style="enable-background:new 0 0 677.9 284.4;" xml:space="preserve">
<style type="text/css">
	.st0{fill:#FFFFFF;}
</style>
<g>
	<g>
		<g>
			<g>
				<path class="st0" d="M31.1,283.7l-5.8-21.9l-5.4,21.9h-9.3L0,248.8h9.5l6,23.7l5.2-23.7H30l6,23.7l5.2-23.7h9.3l-10,34.9H31.1z"
					/>
			</g>
			<g>
				<path class="st0" d="M58.7,266.3c0-3.5,0.8-6.7,2.3-9.5s3.7-5,6.4-6.5c2.7-1.6,5.8-2.3,9.3-2.3c3.7,0,6.9,0.8,9.6,2.4
					c2.7,1.6,4.8,3.7,6.3,6.5c1.5,2.7,2.2,5.8,2.2,9.1c0,3.6-0.8,6.7-2.3,9.5s-3.7,5-6.4,6.5c-2.7,1.6-5.9,2.3-9.4,2.3
					c-3.6,0-6.8-0.8-9.5-2.4s-4.8-3.8-6.3-6.5C59.5,272.7,58.7,269.7,58.7,266.3z M76.9,255.8c-1.6,0-3,0.4-4.3,1.3
					s-2.3,2.1-3.1,3.7c-0.8,1.6-1.2,3.4-1.2,5.5c0,3,0.7,5.5,2.2,7.4c1.5,1.9,3.5,2.9,6.1,2.9c2.5,0,4.5-0.9,6.1-2.7
					c1.6-1.8,2.4-4.4,2.4-7.8c0-3-0.8-5.4-2.3-7.3C81.4,256.8,79.4,255.8,76.9,255.8z"/>
			</g>
			<g>
				<path class="st0" d="M108.7,283.7v-34.9h14.7c4.2,0,7.6,1,10.3,3s4.1,5,4.1,8.9c0,2.1-0.4,3.9-1.3,5.4c-0.8,1.6-2,2.8-3.5,3.8
					l7.7,13.8h-10.8l-5.7-11H118v11L108.7,283.7L108.7,283.7z M128.1,260.6c0-1.5-0.4-2.6-1.3-3.4c-0.9-0.8-2.1-1.2-3.7-1.2h-5v9.2
					h5.1c1.4,0,2.6-0.4,3.5-1.3C127.7,263.1,128.1,262,128.1,260.6z"/>
			</g>
			<g>
				<path class="st0" d="M163,276.3h14.8l0.9,7.3h-25.1v-34.9h9.3v27.6H163z"/>
			</g>
			<g>
				<path class="st0" d="M222.8,266c0,3.6-0.7,6.7-2.1,9.3c-1.4,2.7-3.4,4.7-5.9,6.2c-2.5,1.4-5.4,2.2-8.7,2.2h-15.6v-34.9h15.8
					c3.5,0,6.5,0.7,9,2.2s4.4,3.5,5.6,6.1C222.2,259.6,222.8,262.6,222.8,266z M213.1,266c0-2.9-0.6-5.3-1.9-7.2
					c-1.3-1.8-3.1-2.7-5.4-2.7h-6v20.2h5.6c2.3,0,4.1-0.9,5.5-2.7C212.4,271.9,213.1,269.3,213.1,266z"/>
			</g>
			<g>
				<path class="st0" d="M248.8,284.3c-1.8,0-3.8-0.3-6.1-0.8s-4-1.2-5.4-2l3.1-7c0.9,0.5,2.2,1.1,3.8,1.5c1.6,0.5,3.1,0.7,4.3,0.7
					c1.4,0,2.5-0.3,3.3-0.8c0.8-0.6,1.2-1.2,1.2-1.9c0-0.4-0.3-0.9-0.9-1.3s-1.6-1-2.9-1.8l-1.6-0.9c-2.3-1.4-4.1-2.5-5.4-3.4
					s-2.5-2.1-3.5-3.5s-1.5-3.1-1.5-4.9c0-1.9,0.5-3.6,1.6-5.2c1.1-1.5,2.6-2.7,4.5-3.6c2-0.9,4.2-1.3,6.8-1.3
					c1.8,0,3.6,0.3,5.5,0.8c1.9,0.5,3.5,1.2,4.8,2.1l-2.8,6.3c-1.8-0.6-3.2-1-4.2-1.2s-2-0.3-3.2-0.3c-1,0-1.9,0.2-2.5,0.7
					s-1,1.1-1,1.7c0,0.5,0.3,1,0.8,1.4s1.4,0.9,2.6,1.6l1.8,1c2.2,1.2,4,2.4,5.4,3.4c1.4,1,2.7,2.3,3.7,3.7c1,1.4,1.5,3,1.5,4.8
					c0,2-0.6,3.7-1.7,5.3c-1.1,1.5-2.7,2.8-4.9,3.6C254.1,283.9,251.6,284.3,248.8,284.3z"/>
			</g>
			<g>
				<path class="st0" d="M274.5,266.3c0-3.5,0.8-6.7,2.3-9.5s3.7-5,6.4-6.5c2.7-1.6,5.8-2.3,9.3-2.3c3.7,0,6.9,0.8,9.6,2.4
					s4.8,3.7,6.3,6.5c1.5,2.7,2.2,5.8,2.2,9.1c0,3.6-0.8,6.7-2.3,9.5s-3.7,5-6.4,6.5c-2.7,1.6-5.9,2.3-9.4,2.3
					c-3.6,0-6.8-0.8-9.5-2.4s-4.8-3.8-6.3-6.5C275.3,272.7,274.5,269.7,274.5,266.3z M292.7,255.8c-1.6,0-3,0.4-4.3,1.3
					s-2.3,2.1-3.1,3.7c-0.8,1.6-1.2,3.4-1.2,5.5c0,3,0.7,5.5,2.2,7.4s3.5,2.9,6.1,2.9c2.5,0,4.5-0.9,6.1-2.7
					c1.6-1.8,2.4-4.4,2.4-7.8c0-3-0.8-5.4-2.3-7.3C297.2,256.8,295.2,255.8,292.7,255.8z"/>
			</g>
			<g>
				<path class="st0" d="M341.9,248.1c1.8,0,3.6,0.3,5.5,0.8c1.9,0.5,3.5,1.2,4.8,2.1l-2.8,6.3c-1.8-0.6-3.2-1-4.2-1.2
					s-2-0.3-3.2-0.3c-1.4,0-2.7,0.4-4,1.3s-2.3,2.1-3.1,3.7c-0.8,1.6-1.2,3.4-1.2,5.5s0.4,3.9,1.2,5.5s1.9,2.8,3.3,3.6
					c1.4,0.8,2.8,1.3,4.2,1.3c2.3,0,4.5-0.6,6.6-1.9l3.5,7c-1.3,0.8-3,1.4-4.9,1.9c-1.9,0.5-3.8,0.7-5.6,0.7c-3.7,0-6.9-0.8-9.7-2.3
					c-2.7-1.5-4.8-3.6-6.3-6.3c-1.5-2.7-2.2-5.8-2.2-9.3s0.8-6.7,2.3-9.5s3.7-4.9,6.4-6.5C335.4,248.8,338.5,248.1,341.9,248.1z"/>
			</g>
			<g>
				<path class="st0" d="M382.8,248.1c1.8,0,3.6,0.3,5.5,0.8c1.9,0.5,3.5,1.2,4.8,2.1l-2.8,6.3c-1.8-0.6-3.2-1-4.2-1.2
					s-2-0.3-3.2-0.3c-1.4,0-2.7,0.4-4,1.3s-2.3,2.1-3.1,3.7s-1.2,3.4-1.2,5.5s0.4,3.9,1.2,5.5c0.8,1.6,1.9,2.8,3.3,3.6
					c1.4,0.8,2.8,1.3,4.2,1.3c2.3,0,4.5-0.6,6.6-1.9l3.5,7c-1.3,0.8-3,1.4-4.9,1.9c-1.9,0.5-3.8,0.7-5.6,0.7c-3.7,0-6.9-0.8-9.7-2.3
					c-2.7-1.5-4.8-3.6-6.3-6.3c-1.5-2.7-2.2-5.8-2.2-9.3s0.8-6.7,2.3-9.5s3.7-4.9,6.4-6.5C376.3,248.8,379.4,248.1,382.8,248.1z"/>
			</g>
			<g>
				<path class="st0" d="M434.1,276.3l0.9,7.3h-25.6v-34.9h24.7l0.9,7.3h-16.2v6.4h10.7l0.9,7.3h-11.6v6.5h15.3V276.3z"/>
			</g>
			<g>
				<path class="st0" d="M450.4,283.7v-34.9h14.7c4.2,0,7.6,1,10.3,3s4.1,5,4.1,8.9c0,2.1-0.4,3.9-1.3,5.4c-0.8,1.6-2,2.8-3.5,3.8
					l7.7,13.8h-10.8l-5.7-11h-6.2v11L450.4,283.7L450.4,283.7z M469.8,260.6c0-1.5-0.4-2.6-1.3-3.4c-0.9-0.8-2.1-1.2-3.7-1.2h-5v9.2
					h5.1c1.4,0,2.6-0.4,3.5-1.3C469.3,263.1,469.8,262,469.8,260.6z"/>
			</g>
			<g>
				<path class="st0" d="M506.4,284.3c-1.8,0-3.8-0.3-6.1-0.8c-2.2-0.5-4-1.2-5.4-2l3.1-7c0.9,0.5,2.2,1.1,3.8,1.5
					c1.6,0.5,3.1,0.7,4.3,0.7c1.4,0,2.5-0.3,3.3-0.8c0.8-0.6,1.2-1.2,1.2-1.9c0-0.4-0.3-0.9-0.9-1.3c-0.6-0.4-1.6-1-2.9-1.8
					l-1.6-0.9c-2.3-1.4-4.1-2.5-5.4-3.4c-1.3-0.9-2.5-2.1-3.5-3.5s-1.5-3.1-1.5-4.9c0-1.9,0.5-3.6,1.6-5.2c1.1-1.5,2.6-2.7,4.5-3.6
					c2-0.9,4.2-1.3,6.8-1.3c1.8,0,3.6,0.3,5.5,0.8s3.5,1.2,4.8,2.1l-2.8,6.3c-1.8-0.6-3.2-1-4.2-1.2s-2-0.3-3.2-0.3
					c-1,0-1.9,0.2-2.5,0.7s-1,1.1-1,1.7c0,0.5,0.3,1,0.8,1.4s1.4,0.9,2.6,1.6l1.8,1c2.2,1.2,4,2.4,5.4,3.4s2.7,2.3,3.7,3.7
					c1,1.4,1.5,3,1.5,4.8c0,2-0.6,3.7-1.7,5.3c-1.1,1.5-2.7,2.8-4.9,3.6C511.6,283.9,509.2,284.3,506.4,284.3z"/>
			</g>
			<g>
				<path class="st0" d="M567.6,248.7v34.9h-9.3v-13.7h-12.2v13.7h-9.3v-34.9l9.3-0.3v14.2h12.2v-13.9L567.6,248.7L567.6,248.7z"/>
			</g>
			<g>
				<path class="st0" d="M583.6,266.3c0-3.5,0.8-6.7,2.3-9.5s3.7-5,6.4-6.5c2.7-1.6,5.8-2.3,9.3-2.3c3.7,0,6.9,0.8,9.6,2.4
					c2.7,1.6,4.8,3.7,6.3,6.5c1.5,2.7,2.2,5.8,2.2,9.1c0,3.6-0.8,6.7-2.3,9.5s-3.7,5-6.4,6.5c-2.7,1.6-5.9,2.3-9.4,2.3
					c-3.6,0-6.8-0.8-9.5-2.4s-4.8-3.8-6.3-6.5C584.3,272.7,583.6,269.7,583.6,266.3z M601.7,255.8c-1.6,0-3,0.4-4.3,1.3
					s-2.3,2.1-3.1,3.7s-1.2,3.4-1.2,5.5c0,3,0.7,5.5,2.2,7.4s3.5,2.9,6.1,2.9c2.5,0,4.5-0.9,6.1-2.7c1.6-1.8,2.4-4.4,2.4-7.8
					c0-3-0.8-5.4-2.3-7.3C606.3,256.8,604.2,255.8,601.7,255.8z"/>
			</g>
			<g>
				<path class="st0" d="M645,273.5v10.2h-9.3v-34.9h14.7c2.7,0,5.1,0.5,7.3,1.4s3.9,2.4,5.2,4.3s1.9,4.2,1.9,6.9
					c0,2.7-0.7,4.9-2.1,6.8c-1.4,1.8-3.2,3.2-5.4,4.1s-4.7,1.3-7.3,1.3L645,273.5L645,273.5z M655,261.3c0-1.6-0.5-2.8-1.4-3.8
					s-2.1-1.4-3.7-1.4h-5v10.1h5.1c1.4,0,2.6-0.5,3.5-1.4C654.6,263.8,655,262.7,655,261.3z"/>
			</g>
		</g>
	</g>
	<g>
		<polygon class="st0" points="670.7,249.7 669.3,249.7 669.3,249.2 672.7,249.2 672.7,249.7 671.3,249.7 671.3,253.7 670.7,253.7 
					"/>
		<path class="st0" d="M677.1,251.8c0-0.6-0.1-1.4-0.1-1.9l0,0c-0.2,0.5-0.3,1.1-0.6,1.7l-0.8,2.2h-0.5l-0.7-2.1
			c-0.2-0.6-0.4-1.2-0.5-1.8l0,0c0,0.6,0,1.3-0.1,2l-0.1,1.9h-0.6l0.3-4.5h0.8l0.8,2.2c0.2,0.6,0.3,1.1,0.5,1.5l0,0
			c0.1-0.5,0.3-0.9,0.5-1.5l0.8-2.2h0.8l0.3,4.5h-0.6L677.1,251.8z"/>
	</g>
	<g>
		<g>
			<path class="st0" d="M332.5,44.2H332c-25.3,0.1-49,10.1-66.8,28s-27.5,41.6-27.4,66.8c0.3,51.7,42.8,93.7,94.7,93.7h0.5
				c25.3-0.1,49-10.1,66.8-28s27.5-41.6,27.4-66.8C427,86.3,384.5,44.2,332.5,44.2z M333,224.3c-47.6,0.3-86.5-38-86.7-85.4
				c-0.3-47.4,38.2-86,85.8-86.3s86.5,38,86.7,85.4C419,185.4,380.6,224.1,333,224.3z"/>
			<path class="st0" d="M410.4,130.5l-24.8,22.1l-18.8-6.1l-10.7-33.2l11.6-16.2l33.2,3.2c-3.6-6.4-8-12.3-13.4-17.6
				c-10.8-10.6-24.1-17.8-38.5-20.9l13.7,31.6l-11.9,16h-34.9l-11.6-16l14.2-32.2c-15.8,2.8-30.4,10.4-41.9,22
				c-5,5.1-9.3,10.8-12.7,16.9l34.7-3.2l11.5,16.3l-10.8,33.2l-18.8,6.1l-26-23.4c-0.4,3.2-0.6,6.5-0.6,9.8
				c0.1,19.9,7.6,38.7,21.2,53.1l7.3-32.8l19-6l28.2,20.5v19.8l-28.7,16.8c9.9,4.4,20.8,6.7,32,6.6c11.3-0.1,22.3-2.5,32.3-7.1
				l-28.3-16.5v-19.8l28.2-20.5l19,6l7,31.5c12.9-14.5,19.8-32.9,19.7-52.4C410.8,135.5,410.7,133,410.4,130.5z M361.1,72.7
				c8,3.5,15.4,8.5,21.7,14.8c1.5,1.5,3,3.1,4.3,4.7l-18.4-1.8L361.1,72.7z M298.4,90.2l-20.7,1.9c1.2-1.4,2.5-2.8,3.8-4.1
				c7.3-7.3,15.8-12.9,25.2-16.5L298.4,90.2z M271.7,176.6c-6.2-9.8-9.9-21-10.8-32.7l15,13.5L271.7,176.6z M349.1,208.2
				c-5.3,1.3-10.7,1.9-16.3,1.9h-0.4c-5.2,0-10.2-0.5-15.2-1.6l16.2-9.4L349.1,208.2z M333.1,167.8l-27.2-19.7l10.4-31.9H350
				l10.3,31.9L333.1,167.8z M394.4,174.4l-3.8-17.2l13.2-11.7C402.7,155.7,399.5,165.6,394.4,174.4z"/>
		</g>
		<g>
			<g>
				<g>
					<polygon class="st0" points="334.1,0 338.4,13.6 352.6,13.5 341.1,21.8 345.6,35.2 334.1,26.8 322.7,35.2 327.2,21.8 
						315.6,13.5 329.8,13.6 					"/>
				</g>
			</g>
			<g>
				<g>
					<polygon class="st0" points="392.3,11.9 390.6,26.1 403.7,31.8 389.7,34.6 388.3,48.7 381.3,36.3 367.4,39.3 377.1,28.9 
						369.9,16.6 382.8,22.5 					"/>
				</g>
			</g>
			<g>
				<g>
					<polygon class="st0" points="272.9,11.9 282.3,22.6 295.3,16.7 288,29 297.6,39.5 283.7,36.4 276.6,48.7 275.3,34.6 
						261.4,31.7 274.4,26 					"/>
				</g>
			</g>
		</g>
	</g>
</g>
</svg>
